<svg fill="none" xmlns="http://www.w3.org/2000/svg" viewBox="0 0 382 461">
  <circle cx="254" cy="327" r="126.5" fill="#4D4D4D" stroke="#120D17" stroke-width="3"/>
  <path fill-rule="evenodd" clip-rule="evenodd" d="M254 452c69.036 0 125-55.964 125-125 0-2.873-.097-5.723-.288-8.547C374.32 375.176 320.163 420 254 420c-66.163 0-120.32-44.824-124.712-101.547-.191 2.824-.288 5.674-.288 8.547 0 69.036 55.964 125 125 125z" fill="#120D17" fill-opacity=".2"/>
  <path fill-rule="evenodd" clip-rule="evenodd" d="M357.455 396.083c-.181 1.05 1.188 1.617 1.802.746l3.95-5.597c.005.002.01.004.014.006 2.297.951 6.127-3.036 8.556-8.905 2.429-5.868 2.537-11.396.241-12.346-.074-.031-.149-.056-.226-.077l.99-5.756c.18-1.051-1.188-1.617-1.803-.746l-5.046 7.15c-.399.564-1.236.565-1.634.001l-5.05-7.148c-.615-.871-1.984-.303-1.803.747l1.488 8.624c.117.681-.474 1.273-1.155 1.156l-8.625-1.483c-1.051-.181-1.617 1.188-.746 1.802l7.15 5.047c.564.398.565 1.235.001 1.634l-7.148 5.05c-.871.615-.303 1.983.747 1.802l8.624-1.487c.681-.118 1.273.474 1.156 1.155l-1.483 8.625z" fill="#120D17"/>
  <path d="M362.538 378.509c2.006-4.848 5.287-8.093 7.329-7.248 2.041.845 2.069 5.46.062 10.307-2.006 4.848-5.287 8.093-7.329 7.249-2.041-.845-2.069-5.46-.062-10.308z" fill="#FFFFF4"/>
  <path fill-rule="evenodd" clip-rule="evenodd" d="M232.069 451.503c-1.048.197-1.101 1.677-.071 1.949l6.623 1.751c-.001.006-.001.011-.001.016-.09 2.483 4.982 4.684 11.329 4.914 6.347.231 11.566-1.595 11.656-4.079.003-.079 0-.159-.007-.238l5.74-1.079c1.048-.197 1.101-1.677.071-1.95l-8.461-2.237c-.668-.176-.96-.961-.57-1.531l4.939-7.225c.601-.88-.408-1.965-1.329-1.429l-7.565 4.401c-.597.348-1.358-.001-1.485-.679l-1.617-8.602c-.197-1.047-1.677-1.101-1.95-.071l-2.237 8.462c-.177.667-.961.959-1.531.57l-7.226-4.939c-.879-.602-1.964.407-1.428 1.328l4.401 7.565c.347.597-.001 1.358-.68 1.486l-8.601 1.617z" fill="#120D17"/>
  <path d="M250.312 450.14c5.243.191 9.429 2.135 9.349 4.343-.081 2.207-4.396 3.842-9.639 3.652-5.244-.191-9.429-2.135-9.349-4.343.08-2.207 4.396-3.843 9.639-3.652z" fill="#FFFFF4"/>
  <path fill-rule="evenodd" clip-rule="evenodd" d="M370.541 289.943c.565.904 1.963.415 1.842-.643l-.493-4.3c.004-.001.007-.003.011-.004 1.821-.637 1.979-4.926.352-9.58-1.628-4.655-4.423-7.912-6.245-7.275-.058.02-.115.045-.17.072l-1.878-3.006c-.565-.903-1.963-.414-1.841.644l.625 5.452c.078.686-.546 1.244-1.219 1.088l-5.347-1.234c-1.038-.24-1.681 1.094-.846 1.757l4.297 3.413c.54.43.493 1.265-.092 1.631l-4.654 2.908c-.904.565-.415 1.963.644 1.842l5.451-.625c.687-.079 1.244.545 1.089 1.218l-1.235 5.347c-.24 1.038 1.095 1.681 1.758.847l3.413-4.297c.429-.541 1.265-.494 1.631.092l2.907 4.653z" fill="#120D17"/>
  <path d="M364.924 277.978c-1.344-3.845-1.121-7.421.498-7.987 1.618-.566 4.021 2.092 5.365 5.937 1.344 3.845 1.121 7.421-.498 7.987-1.618.566-4.021-2.092-5.365-5.937z" fill="#FFFFF4"/>
  <path fill-rule="evenodd" clip-rule="evenodd" d="M313.153 215.733c1.063.068 1.481-1.353.549-1.871l-2.841-1.581c.001-.003.002-.007.003-.01.477-1.623-2.5-3.927-6.649-5.145-4.15-1.218-7.899-.889-8.376.735-.015.052-.027.105-.035.158l-2.559-.162c-1.064-.068-1.481 1.353-.55 1.871l3.578 1.991c.604.335.693 1.167.175 1.624l-3.073 2.706c-.799.704-.089 2.004.936 1.712l3.937-1.123c.664-.189 1.315.336 1.272 1.025l-.26 4.086c-.067 1.064 1.354 1.481 1.872.549l1.991-3.577c.335-.604 1.167-.693 1.624-.175l2.706 3.072c.704.8 2.004.09 1.712-.935l-1.123-3.937c-.189-.664.336-1.316 1.025-1.272l4.086.259z" fill="#120D17"/>
  <path d="M302.297 213.659c-3.428-1.006-5.863-2.992-5.439-4.435.423-1.443 3.545-1.797 6.973-.791 3.428 1.006 5.863 2.991 5.439 4.435-.423 1.443-3.545 1.797-6.973.791z" fill="#FFFFF4"/>
  <path fill-rule="evenodd" clip-rule="evenodd" d="M129.975 313.318c-.234-1.039-1.716-1.039-1.95 0l-1.51 6.682h-.015c-2.485 0-4.5 5.149-4.5 11.5s2.015 11.5 4.5 11.5c.08 0 .159-.005.238-.016l1.287 5.698c.234 1.039 1.716 1.039 1.95 0l1.929-8.537c.152-.674.925-.994 1.509-.625l7.4 4.673c.901.569 1.949-.479 1.38-1.38l-4.673-7.4c-.369-.584-.049-1.357.625-1.509l8.537-1.929c1.039-.234 1.039-1.716 0-1.95l-8.537-1.929c-.674-.152-.994-.925-.625-1.509l4.673-7.4c.569-.901-.479-1.949-1.38-1.38l-7.4 4.673c-.584.369-1.357.049-1.509-.625l-1.929-8.537z" fill="#120D17"/>
  <path d="M132 331.5c0 5.247-1.791 9.5-4 9.5s-4-4.253-4-9.5 1.791-9.5 4-9.5 4 4.253 4 9.5z" fill="#FFFFF4"/>
  <path fill-rule="evenodd" clip-rule="evenodd" d="M242.98 309.808c-.218-1.067-1.742-1.067-1.96 0l-1.568 7.698c-.15.731-1.018 1.047-1.603.583l-6.149-4.888c-.853-.678-2.021.302-1.501 1.259l3.746 6.905c.356.656-.106 1.457-.853 1.477l-7.852.208c-1.089.029-1.354 1.53-.341 1.93l7.308 2.881c.695.274.855 1.184.296 1.679l-5.881 5.207c-.816.722-.053 2.043.979 1.697l7.451-2.49c.708-.236 1.416.358 1.306 1.096l-1.159 7.77c-.16 1.077 1.273 1.598 1.842.67l4.106-6.697c.391-.636 1.315-.636 1.705 0l4.107 6.697c.569.928 2.002.407 1.842-.67l-1.159-7.77c-.11-.738.598-1.332 1.306-1.096l7.45 2.49c1.033.346 1.796-.975.98-1.697l-5.881-5.207c-.559-.495-.399-1.405.296-1.679l7.308-2.881c1.013-.4.748-1.901-.341-1.93l-7.852-.208c-.747-.02-1.209-.821-.853-1.477l3.746-6.905c.52-.957-.649-1.937-1.501-1.259l-6.149 4.888c-.585.464-1.454.148-1.603-.583l-1.568-7.698z" fill="#120D17"/>
  <circle cx="242" cy="327" r="7" fill="#FFFFF4"/>
  <path fill-rule="evenodd" clip-rule="evenodd" d="M294.715 372.282c-.218-1.067-1.743-1.067-1.96 0l-.434 2.131c-.149.731-1.018 1.048-1.602.583l-1.703-1.353c-.852-.678-2.02.302-1.501 1.26l1.037 1.911c.356.656-.106 1.457-.852 1.476l-2.174.058c-1.089.029-1.353 1.531-.34 1.93l2.023.798c.694.273.855 1.184.296 1.679l-1.628 1.441c-.816.722-.053 2.042.979 1.697l2.063-.689c.708-.237 1.416.358 1.306 1.096l-.321 2.15c-.161 1.078 1.272 1.599 1.842.671l1.136-1.854c.391-.636 1.315-.636 1.705 0l1.137 1.854c.569.928 2.002.407 1.842-.671l-.321-2.15c-.11-.738.598-1.333 1.306-1.096l2.062.689c1.033.345 1.796-.975.98-1.697l-1.628-1.441c-.559-.495-.398-1.406.296-1.679l2.023-.798c1.013-.399.748-1.901-.34-1.93l-2.174-.058c-.746-.019-1.208-.82-.853-1.476l1.037-1.911c.52-.958-.648-1.938-1.501-1.26l-1.702 1.353c-.584.465-1.453.148-1.602-.583l-.434-2.131z" fill="#120D17"/>
  <circle cx="293.735" cy="380.79" r="4.23708" fill="#FFFFF4"/>
  <path fill-rule="evenodd" clip-rule="evenodd" d="M189.163 263.8c-.217-1.067-1.742-1.067-1.96 0l-.434 2.131c-.149.731-1.018 1.048-1.602.583l-1.702-1.353c-.853-.678-2.021.302-1.501 1.26l1.037 1.911c.356.656-.107 1.457-.853 1.477l-2.174.057c-1.088.029-1.353 1.531-.34 1.93l2.023.798c.694.273.855 1.184.296 1.679l-1.628 1.441c-.815.722-.053 2.042.98 1.697l2.062-.689c.708-.237 1.416.358 1.306 1.096l-.32 2.15c-.161 1.078 1.272 1.599 1.841.671l1.137-1.854c.39-.636 1.315-.636 1.705 0l1.136 1.854c.57.928 2.003.407 1.842-.671l-.321-2.15c-.11-.738.598-1.333 1.306-1.096l2.063.689c1.033.345 1.795-.975.98-1.697l-1.629-1.441c-.558-.495-.398-1.406.296-1.679l2.023-.798c1.013-.399.749-1.901-.34-1.93l-2.174-.057c-.746-.02-1.208-.821-.852-1.477l1.037-1.911c.519-.958-.649-1.938-1.501-1.26l-1.703 1.353c-.584.465-1.453.148-1.602-.583l-.434-2.131z" fill="#120D17"/>
  <circle cx="188.183" cy="272.308" r="4.23708" fill="#FFFFF4"/>
  <path fill-rule="evenodd" clip-rule="evenodd" d="M265.049 227.188c-.483-.977-1.957-.588-1.895.499l.318 5.613c.043.745-.717 1.272-1.4.972l-5.147-2.261c-.997-.438-1.877.808-1.131 1.601l3.852 4.094c.512.544.269 1.436-.448 1.646l-5.396 1.576c-1.045.305-.918 1.825.163 1.953l5.583.661c.741.087 1.128.927.714 1.548l-3.12 4.676c-.605.906.469 1.988 1.38 1.391l4.701-3.082c.624-.409 1.461-.015 1.542.727l.616 5.588c.119 1.082 1.638 1.221 1.952.178l1.62-5.383c.215-.714 1.109-.95 1.648-.434l4.064 3.884c.787.753 2.039-.116 1.609-1.117l-2.219-5.165c-.294-.686.239-1.441.984-1.393l5.61.364c1.086.071 1.487-1.4.515-1.891l-5.02-2.53c-.667-.336-.744-1.257-.142-1.699l4.531-3.327c.878-.644.239-2.029-.821-1.779l-5.472 1.288c-.726.171-1.377-.485-1.2-1.21l1.332-5.462c.259-1.058-1.121-1.708-1.772-.835l-3.364 4.504c-.446.598-1.367.514-1.698-.155l-2.489-5.04z" fill="#120D17"/>
  <circle cx="267.613" cy="240.759" r="5.91352" transform="rotate(-14.768 267.613 240.759)" fill="#FFFFF4"/>
  <path fill-rule="evenodd" clip-rule="evenodd" d="M317.959 277.432c.172-1.075-1.255-1.612-1.834-.69l-3.143 5.001c-.397.632-1.321.621-1.704-.019l-3.033-5.069c-.559-.934-1.997-.428-1.848.651l.807 5.85c.102.74-.613 1.326-1.318 1.082l-5.581-1.934c-1.029-.356-1.806.956-.999 1.687l4.379 3.963c.554.501.383 1.409-.314 1.676l-5.518 2.106c-1.017.388-.769 1.892.319 1.933l5.902.221c.746.028 1.2.834.836 1.486l-2.873 5.16c-.53.952.628 1.945 1.487 1.276l4.664-3.624c.589-.458 1.454-.132 1.596.601l1.115 5.8c.206 1.069 1.731 1.086 1.96.021l1.243-5.774c.157-.73 1.029-1.036 1.608-.565l4.583 3.725c.845.687 2.024-.28 1.515-1.243l-2.76-5.222c-.348-.66.123-1.455.869-1.467l5.906-.092c1.089-.017 1.37-1.515.361-1.926l-5.47-2.226c-.692-.282-.842-1.194-.278-1.682l4.465-3.867c.823-.713.075-2.041-.961-1.708l-5.622 1.811c-.711.229-1.412-.373-1.294-1.11l.935-5.832z" fill="#120D17"/>
  <circle cx="312.035" cy="290.388" r="6.05197" transform="rotate(20.628 312.035 290.388)" fill="#FFFFF4"/>
  <path fill-rule="evenodd" clip-rule="evenodd" d="M200.717 381.923c-.447-.993-1.935-.656-1.912.432l.125 5.905c.016.746-.762 1.246-1.434.922l-5.32-2.566c-.98-.473-1.904.741-1.186 1.56l3.891 4.443c.492.561.218 1.444-.506 1.628l-5.724 1.454c-1.056.268-.983 1.791.093 1.957l5.837.902c.738.114 1.095.967.659 1.573l-3.451 4.793c-.636.884.399 2.004 1.33 1.44l5.051-3.061c.639-.387 1.46.037 1.516.781l.437 5.89c.081 1.086 1.594 1.279 1.944.248l1.902-5.592c.241-.706 1.143-.91 1.663-.375l4.122 4.23c.76.78 2.042-.044 1.648-1.059l-2.137-5.506c-.27-.696.29-1.432 1.033-1.357l5.876.591c1.084.11 1.536-1.347.582-1.871l-5.177-2.844c-.654-.359-.698-1.283-.081-1.703l4.882-3.324c.9-.613.311-2.019-.757-1.808l-5.794 1.149c-.732.145-1.359-.534-1.157-1.252l1.604-5.685c.295-1.048-1.06-1.747-1.742-.898l-3.7 4.604c-.468.582-1.385.465-1.691-.216l-2.426-5.385z" fill="#120D17"/>
  <circle cx="202.893" cy="396.002" r="6.05197" transform="rotate(-12.732 202.893 396.002)" fill="#FFFFF4"/>
  <path d="M223 258c-25 21-43-15.5-41.5-33C196 209 321 210.5 326 225c-14.5 23.5-37.5 22-49 22-17 32.5-43.5 26.5-54 11z" fill="#120D17" fill-opacity=".2"/>
  <path d="M299.757 123.071c-.061-.121-.11-.225-.15-.314.065-.1.145-.218.241-.351.357-.499.878-1.149 1.544-1.896 1.33-1.494 3.172-3.306 5.297-5.013 2.132-1.711 4.496-3.273 6.871-4.313 2.388-1.046 4.648-1.505 6.643-1.206 1.754.263 3.848 1.719 6.156 4.434 2.248 2.647 4.435 6.175 6.435 9.96 3.995 7.559 7.082 15.826 8.322 19.301.084.234.173.483.268.747 1.329 3.707 3.706 10.338 5.546 17.985 1.98 8.228 3.284 17.428 2.092 25.295-1.044 6.895-7.31 10.117-14.217 11.462-3.361.654-6.638.805-9.009.76-.545-.01-1.035-.031-1.462-.057.05-.756.077-1.684.08-2.742.008-2.7-.136-6.399-.483-10.6-.694-8.382-2.211-18.93-5.028-27.639-2.83-8.745-7.941-17.668-12.202-24.561-1.07-1.73-2.091-3.34-3.013-4.792-.063-.1-.126-.199-.189-.297-.848-1.335-1.602-2.521-2.233-3.548-.684-1.111-1.192-1.982-1.509-2.615zm-.286-.654c-.01-.033-.013-.048-.012-.047.001.001.006.017.012.047z" fill="#FFFFF4" stroke="#120D17" stroke-width="4"/>
  <path d="M318.718 108.883c.987.235 1.841.511 2.569.823-.637.208-1.321.455-2.034.732-2.457.956-5.359 2.312-8.097 3.808-2.727 1.49-5.357 3.156-7.234 4.741-.93.787-1.749 1.614-2.289 2.449-.178.275-.349.59-.48.931-2.027-.082-4.874.116-8.137.472-4.332.471-9.619 1.248-15.186 2.169-10.333 1.709-21.688 3.924-29.811 5.636.107-4.723.693-8.094 2.657-12.138.077-.036.174-.079.296-.13.474-.197 1.181-.451 2.108-.751 1.848-.596 4.471-1.345 7.644-2.161 6.342-1.632 14.818-3.518 23.558-4.989 8.752-1.472 17.71-2.519 25.038-2.492 3.666.013 6.864.295 9.398.9z" fill="#FFFFF4" stroke="#120D17" stroke-width="3"/>
  <path d="M206.902 200.492c-16.306-13.585-15.318-44.278 5.436-60.882 18.544 8.812 48.428-2.322 58.701-10.057 2.637-1.985 5.711-4.35 8.976-4.835l13.516-2.007c2.943-.437 5.896.784 7.577 3.239 9.583 13.992 19.861 33.555 21.916 51.397 9.388 81.51-51.884 55.346-58.308 61.384-6.918 28.177-29.648 32.202-37.554 10.063-2.064-17.044 2.682-28.129 9.695-34.964-3.895 3.303-6.834 6.702-8.707 8.8-1.317-.671-5.929 2.013-5.929 2.013 2.964 21.635-.989 32.202-15.319 32.202-25.695-4.026-24.706-56.353 0-56.353z" fill="#FFFFF4" stroke="#120D17" stroke-width="3"/>
  <path d="M257.5 227c2-9.5 51 5.5 61.5-11.5-8.446 32.791-52.437 17.695-52.504 21.426.003.026.004.05.004.074-.003-.025-.005-.05-.004-.074-.182-1.709-6.369-7.791-8.996-9.926zM240.5 209c-17-3-29 6-27.5 9.5 3.333 1.5 10.4 4.9 10 4.5-.4-.4 4-2 6.5-2.5 1.5-3.5 8.5-10 11-11.5z" fill="#E5E5E5"/>
  <path d="M258 203v-8l5-.5v8.5h-5zM269 202v-8l5-.5v8.5h-5zM280 201v-8.5l5-.5v8l-5 1zM291 199v-8l5-.5v8.5h-5zM302 197.5V189l5-1.5v9.5l-5 .5zM312 195.5V186l5-2v10l-5 1.5z" fill="#4D4D4D" stroke="#120D17"/>
  <path d="M322.986 181.629c-16.952 10.229-67.39 14.272-72.936 12.623l.042 9.081c24.494-.112 73.955-8.4 73.94-11.558-.015-3.349.967-10.155-1.046-10.146z" stroke="#120D17" stroke-width="2"/>
  <circle cx="245" cy="198" r="9" fill="#120D17"/>
  <circle cx="245" cy="198" r="7" fill="#FFFFF4"/>
  <circle cx="245" cy="198" r="4.5" fill="#4D4D4D" stroke="#120D17"/>
  <path d="M221.5 223.5c-14-9-29-7-33-3-1.5 4 .5 34.5 19 36 16.018 1.299 17.5-21 14-33z" fill="#FFFFF4" stroke="#120D17" stroke-width="3"/>
  <path d="M266 238.5c-8.5-14.5-25-18.5-35.5-16.5-15.5 29.5 4.5 41 12.5 40.5 7.5 0 20-8 23-24z" fill="#FFFFF4" stroke="#120D17" stroke-width="3"/>
  <path d="M286 125.5c-31.242 38.343-70.103 24.7-77.124 20.592-.503-.294-.524-.944-.112-1.356l3.326-3.326c.253-.253.629-.35.976-.258 32.748 8.625 59.954-10.675 63.434-14.652l9.5-1z" fill="#E5E5E5"/>
  <path d="M207.36 200c-10.944-8.208-15.65-29.726-6.531-46.344 1.644-2.996 5.141-4.292 8.509-3.712 5.466.943 10.615 5.093 10.108 10.616-.562 6.129-5.633 4.27-9.306 10.071-1.49 2.354-1.537 5.356-.513 7.947 6.977 17.639 27.3 13.134 31.054 20.135 1.521 2.836-.649 6.245-3.29 8.083-12.127 8.439-27.309-4.528-30.031-6.796z" fill="#FFFFF4"/>
  <path d="M203.86 149c-13 17-8.5 42 3.5 51 2.722 2.268 17.904 15.235 30.031 6.796 2.641-1.838 4.811-5.247 3.29-8.083-3.754-7.001-24.077-2.496-31.054-20.135-1.024-2.591-.977-5.593.513-7.947 4.869-7.689 12.192-1.921 8.22-19.131" stroke="#120D17" stroke-width="3"/>
  <path d="M36.5 332.5c47.7902-36.951-16.0782-62.251 24.1385-115.126 1.1854-1.558 2.6919-2.92 4.2709-4.078C96.4889 190.139 115.272 142.913 66.5 68 71 75.8333 86 89.9 110 83.5c4 11 17.5 23 36 18 0 8.5 7 35.5 36.5 26.5 0 16.5 7.5 45.5 34 36" stroke="#E5E5E5" stroke-width="2"/>
  <path d="M227 178C170 79.5 62 64 61 66.5c-.5 2.5.5 3 3.5 3C171 94 227 180.5 227 178z" fill="#4D4D4D"/>
  <path d="M221.811 164.486c32.426-3.306 30.18-6.649 39.689-19.486l21 24.5c-3.5 19-22.949 24.5-45 24.5-17.369 0-24.249-8.551-27.429-15.469-1.192-2.594-1.605-5.683.116-7.961.57-.755 1.283-1.516 2.136-2.297 2.567-2.348 6.027-3.434 9.488-3.787z" fill="#FFFFF4"/>
  <path d="M261.5 145c-9.509 12.837-7.263 16.18-39.689 19.486-3.461.353-6.921 1.439-9.488 3.787-.853.781-1.566 1.542-2.136 2.297-1.721 2.278-1.308 5.367-.116 7.961 3.18 6.918 10.06 15.469 27.429 15.469 22.051 0 41.5-5.5 45-24.5" stroke="#120D17" stroke-width="3"/>
  <path d="M300.5 72c0 38.907-32.206 70.5-72 70.5s-72-31.593-72-70.5c0-38.9071 32.206-70.5 72-70.5s72 31.5929 72 70.5z" fill="#FFFFF4" stroke="#120D17" stroke-width="3"/>
  <path d="M220 139.5c35.104 0 63.5-29.135 63.5-65 0-35.8645-28.396-65-63.5-65s-63.5 29.1355-63.5 65c0 35.865 28.396 65 63.5 65z" fill="#FFFFF4" stroke="#120D17" stroke-width="3"/>
  <ellipse cx="218.5" cy="74" rx="57.5" ry="59" fill="#120D17"/>
  <ellipse rx="4" ry="5.5" transform="matrix(-1 0 0 1 251 89.5)" fill="#E5E5E5"/>
  <ellipse rx="9" ry="11.5" transform="matrix(-1 0 0 1 250 66.5)" fill="#E5E5E5"/>
  <path d="M196 32.5c-6.301-1.6801-11.542.1683-14.837 2.2847-1.151.7395-2.072 1.7961-2.822 2.9409C158.725 67.6958 169.823 90.9865 178 99c-4.4-28 10.167-56 18-66.5z" fill="#E5E5E5"/>
  <path d="M310.5 78c0 7.1756-2.103 13.6103-5.427 18.2136-3.327 4.6054-7.791 7.2864-12.573 7.2864s-9.246-2.681-12.573-7.2864C276.603 91.6103 274.5 85.1756 274.5 78c0-7.1756 2.103-13.6103 5.427-18.2136C283.254 55.181 287.718 52.5 292.5 52.5s9.246 2.681 12.573 7.2864C308.397 64.3897 310.5 70.8244 310.5 78z" fill="#FFFFF4" stroke="#120D17" stroke-width="3"/>
  <path fill-rule="evenodd" clip-rule="evenodd" d="M308.83 81.44c-3.139 3.392-7.935 5.56-13.308 5.56-4.863 0-9.253-1.7764-12.37-4.629C284.11 92.921 289.498 101 296 101c6.687 0 11.761-8.6744 12.83-19.56zm-12.026-24.3986C296.538 57.0139 296.27 57 296 57c-.061 0-.123.0007-.184.0022.332.0048.661.018.988.0392z" fill="#E5E5E5"/>
  <path d="M310.5 79.5c0 5.9584-1.613 11.2848-4.141 15.0779-2.536 3.8035-5.874 5.9221-9.359 5.9221-3.485 0-6.823-2.1186-9.359-5.9221-2.528-3.7931-4.141-9.1195-4.141-15.0779 0-5.9584 1.613-11.2848 4.141-15.0779C290.177 60.6186 293.515 58.5 297 58.5c3.485 0 6.823 2.1186 9.359 5.9221 2.528 3.7931 4.141 9.1195 4.141 15.0779z" stroke="#120D17" stroke-width="3"/>
  <path d="M304.5 79.5c0 3.4731-.941 6.5495-2.384 8.7139-1.45 2.1748-3.288 3.2861-5.116 3.2861-1.828 0-3.666-1.1113-5.116-3.2861-1.443-2.1644-2.384-5.2408-2.384-8.7139 0-3.4731.941-6.5495 2.384-8.7139 1.45-2.1748 3.288-3.2861 5.116-3.2861 1.828 0 3.666 1.1113 5.116 3.2861 1.443 2.1644 2.384 5.2408 2.384 8.7139z" fill="#4D4D4D" stroke="#120D17" stroke-width="3"/>
  <path d="M45.1903 321.054l-.3904 9.042c-.0654 1.515.8521 2.899 2.2726 3.43l8.4789 3.165c2.2689.847 2.1283 4.103-.2051 4.751l-8.7202 2.423c-1.461.406-2.4944 1.706-2.5598 3.221l-.3904 9.042c-.1045 2.42-3.2441 3.292-4.5817 1.273l-4.999-7.544c-.8375-1.264-2.3937-1.845-3.8546-1.439l-8.7202 2.423c-2.3334.648-4.1332-2.069-2.6266-3.965l5.6307-7.085c.9433-1.187 1.015-2.847.1775-4.111l-4.999-7.545c-1.3376-2.019.6896-4.57 2.9584-3.723l8.479 3.166c1.4205.53 3.0209.085 3.9643-1.102l5.6306-7.085c1.5067-1.896 4.5595-.757 4.455 1.663z" fill="#FFFFF4" stroke="#FFFFF4"/>
</svg>