<svg fill="none" xmlns="http://www.w3.org/2000/svg" viewBox="0 0 26 26">
  <ellipse cx="12.9224" cy="13" rx="12.6975" ry="12.7846" fill="#120D17" fill-opacity=".2"/>
  <mask id="a" fill="#fff">
    <path fill-rule="evenodd" clip-rule="evenodd" d="M12.9257 25.7846c7.0108 0 12.6941-5.7239 12.6941-12.7846 0-7.06075-5.6833-12.784607-12.6941-12.784607-2.5071 0-4.84453.732032-6.81295 1.995447.35685-.04887.72054-.07406 1.08967-.07406 4.74138 0 8.58498 4.15605 8.58498 9.28282 0 5.1267-3.8436 9.2828-8.58498 9.2828-2.27889 0-4.3504-.9601-5.88742-2.5267 1.97275 4.4822 6.4292 7.6089 11.6107 7.6089z"/>
  </mask>
  <path fill-rule="evenodd" clip-rule="evenodd" d="M12.9257 25.7846c7.0108 0 12.6941-5.7239 12.6941-12.7846 0-7.06075-5.6833-12.784607-12.6941-12.784607-2.5071 0-4.84453.732032-6.81295 1.995447.35685-.04887.72054-.07406 1.08967-.07406 4.74138 0 8.58498 4.15605 8.58498 9.28282 0 5.1267-3.8436 9.2828-8.58498 9.2828-2.27889 0-4.3504-.9601-5.88742-2.5267 1.97275 4.4822 6.4292 7.6089 11.6107 7.6089z" fill="#F2F2F2"/>
  <path d="M6.11275 2.21084l-.54016-.84156.67586 1.83231-.1357-.99075zM1.315 18.1757l.71381-.7003-1.629078 1.1032.915268-.4029zM24.6198 13c0 6.5151-5.2423 11.7846-11.6941 11.7846v2c7.5697 0 13.6941-6.1783 13.6941-13.7846h-2zM12.9257 1.21539c6.4518 0 11.6941 5.26943 11.6941 11.78461h2c0-7.60633-6.1244-13.784607-13.6941-13.784607V1.21539zM6.6529 3.05241c1.81241-1.16329 3.9632-1.83702 6.2728-1.83702V-.784607c-2.7047 0-5.22868.79033155-7.35311 2.153887L6.6529 3.05241zm-.40445.14918c.31205-.04274.6304-.06481.95397-.06481v-2c-.41469 0-.82372.0283-1.22537.08331l.2714 1.9815zm.95397-.06481c4.11688 0 7.58498 3.63331 7.58498 8.28282h2c0-5.60403-4.2192-10.28282-9.58498-10.28282v2zm7.58498 8.28282c0 4.6495-3.4681 8.2828-7.58498 8.2828v2c5.36578 0 9.58498-4.6788 9.58498-10.2828h-2zm-7.58498 8.2828c-1.98844 0-3.80871-.8359-5.17361-2.227L.601199 18.8761C2.31033 20.618 4.63307 21.7024 7.20242 21.7024v-2zm5.72328 5.0822c-4.76772 0-8.87532-2.8764-10.69543-7.0117l-1.830538.8057c2.125388 4.829 6.930688 8.206 12.525968 8.206v-2z" fill="#4D4D4D" mask="url(#a)"/>
  <ellipse rx="1.10174" ry="2.14096" transform="matrix(.92639 .37657 -.372 .92824 20.7036 16.4733)" fill="#E5E5E5"/>
  <ellipse rx="1.10174" ry="2.14096" transform="matrix(.92639 .37657 -.372 .92824 19.1108 11.5959)" fill="#E5E5E5"/>
  <ellipse rx="1.10174" ry="2.14096" transform="matrix(.92639 .37657 -.372 .92823 16.4398 18.3002)" fill="#E5E5E5"/>
</svg>