<?xml version="1.0" standalone="no"?>
<!DOCTYPE svg PUBLIC "-//W3C//DTD SVG 20010904//EN"
 "http://www.w3.org/TR/2001/REC-SVG-20010904/DTD/svg10.dtd">
<svg version="1.0" xmlns="http://www.w3.org/2000/svg"
 width="970.000000pt" height="970.000000pt" viewBox="0 0 970.000000 970.000000"
 preserveAspectRatio="xMidYMid meet">
<metadata>
Created by potrace 1.11, written by Peter Selinger 2001-2013
</metadata>
<g transform="translate(0.000000,970.000000) scale(0.100000,-0.100000)"
fill="#000000" stroke="none">
<path d="M5373 8996 c-29 -7 -53 -12 -53 -10 0 2 -20 -5 -44 -15 -174 -75
-267 -141 -441 -316 -135 -135 -163 -165 -231 -256 -27 -35 -51 -66 -54 -69
-3 -3 -21 -27 -39 -55 -19 -27 -37 -52 -40 -55 -4 -3 -11 -14 -17 -25 -17 -30
-173 -278 -181 -290 -5 -5 -17 -28 -28 -50 -11 -22 -23 -42 -26 -45 -5 -4 -61
-104 -107 -192 -9 -18 -20 -34 -24 -36 -5 -2 -8 -9 -8 -16 0 -6 -11 -28 -25
-47 -13 -20 -22 -39 -19 -41 2 -3 -2 -11 -11 -18 -8 -7 -15 -17 -15 -23 0 -5
-13 -32 -30 -58 -16 -27 -26 -49 -22 -49 4 0 3 -4 -3 -8 -10 -7 -23 -29 -92
-159 -34 -66 -55 -87 -65 -65 -1 4 -48 41 -103 82 -55 41 -102 77 -105 81 -3
3 -27 21 -54 40 -28 18 -58 41 -67 49 -22 19 -34 28 -94 69 -28 19 -52 37 -55
40 -13 15 -99 71 -108 71 -6 0 -12 4 -14 9 -3 9 -317 220 -348 234 -8 4 -27
15 -42 25 -56 37 -275 159 -305 171 -18 8 -33 17 -33 22 0 5 -7 9 -15 9 -9 0
-37 11 -63 24 -56 28 -238 97 -267 101 -11 1 -33 8 -50 14 -16 7 -31 12 -33
11 -1 -1 -15 1 -30 4 -261 57 -462 32 -621 -77 -93 -64 -157 -149 -211 -282
-36 -88 -44 -301 -15 -428 5 -25 15 -72 20 -102 6 -32 54 -197 69 -235 107
-269 279 -609 434 -855 14 -22 31 -49 37 -60 31 -57 326 -501 366 -554 26 -32
25 -35 -18 -50 -77 -27 -229 -84 -258 -96 -16 -7 -68 -27 -115 -45 -302 -116
-690 -302 -930 -447 -63 -37 -127 -76 -143 -85 -17 -10 -41 -26 -54 -38 -13
-11 -25 -20 -28 -20 -5 1 -68 -44 -91 -65 -7 -5 -31 -26 -55 -45 -59 -47 -188
-176 -224 -225 -17 -22 -37 -48 -45 -57 -29 -32 -91 -163 -109 -232 -22 -79
-24 -181 -6 -257 12 -54 50 -143 70 -166 5 -7 33 -39 60 -71 28 -32 60 -65 71
-73 12 -8 39 -26 60 -40 69 -46 138 -80 239 -120 17 -7 32 -13 35 -14 3 0 35
-11 71 -23 37 -12 83 -24 103 -26 19 -2 40 -7 46 -11 6 -4 21 -8 33 -10 12 -2
40 -6 62 -9 22 -3 51 -8 65 -11 30 -6 105 -16 245 -30 145 -16 229 -19 555
-19 361 -1 556 6 768 28 18 2 35 0 37 -4 3 -5 13 -6 24 -3 24 6 51 -22 51 -52
0 -14 -9 -82 -21 -152 -23 -142 -24 -148 -33 -218 -4 -27 -9 -59 -11 -70 -2
-11 -7 -51 -10 -90 -3 -38 -8 -81 -11 -95 -4 -23 -7 -63 -20 -220 -23 -295
-22 -705 1 -813 2 -12 7 -42 10 -67 6 -55 13 -97 21 -130 3 -14 8 -39 9 -56 5
-48 51 -199 79 -259 30 -67 78 -137 128 -190 21 -22 38 -43 38 -47 0 -5 7 -8
15 -8 8 0 15 -4 15 -8 0 -5 12 -15 28 -23 15 -8 29 -16 32 -20 6 -7 102 -51
115 -53 6 -1 15 -4 20 -8 38 -22 258 -26 293 -5 6 5 12 6 12 3 0 -9 140 43
195 73 136 75 313 233 467 416 78 93 286 378 310 424 7 14 16 28 19 31 12 10
144 229 217 360 41 74 121 228 178 342 57 113 113 213 124 221 13 9 30 12 43
8 30 -8 87 -44 87 -53 0 -4 5 -8 10 -8 6 0 23 -11 38 -24 44 -39 68 -60 98
-81 16 -11 36 -28 46 -38 10 -9 23 -17 28 -17 6 0 10 -3 10 -7 0 -5 17 -19 38
-33 20 -14 39 -27 42 -30 3 -3 34 -27 70 -52 36 -26 70 -52 77 -58 7 -5 16
-10 22 -10 5 0 11 -4 13 -8 8 -20 528 -350 528 -335 0 3 8 0 18 -8 9 -8 28
-20 41 -27 35 -20 280 -142 284 -142 3 0 22 -8 43 -17 22 -9 44 -18 49 -19 6
-1 37 -12 70 -24 91 -33 149 -48 275 -67 60 -10 245 -9 295 1 52 10 55 11 88
24 15 7 39 15 53 18 13 3 27 10 30 15 2 5 19 15 37 24 66 31 148 124 196 223
25 50 32 71 48 142 27 123 18 282 -28 470 -56 228 -203 571 -371 863 -22 40
-49 88 -60 107 l-19 35 -170 0 c-137 0 -168 -3 -164 -13 3 -8 39 -69 80 -137
41 -69 89 -148 105 -177 37 -65 180 -354 180 -363 0 -4 7 -21 15 -38 49 -105
128 -366 141 -464 8 -61 8 -200 0 -234 -24 -104 -92 -178 -189 -204 -63 -17
-197 -17 -272 -1 -97 22 -163 40 -187 53 -16 7 -28 11 -28 9 0 -9 -318 139
-330 153 -3 3 -25 17 -50 30 -25 12 -63 32 -85 44 -22 11 -42 24 -45 28 -3 3
-21 14 -40 24 -19 10 -46 26 -60 35 -14 10 -86 57 -160 105 -74 49 -136 92
-138 97 -2 4 -8 8 -14 8 -6 0 -32 17 -59 37 -26 21 -73 56 -104 78 -31 22 -64
47 -73 55 -10 8 -33 26 -52 40 -19 13 -37 27 -40 30 -3 4 -36 30 -73 58 l-69
52 59 26 c72 32 95 42 107 42 5 0 12 4 15 9 3 4 44 28 91 52 88 46 317 193
361 233 15 13 54 47 87 76 117 102 247 243 232 252 -5 3 -128 5 -274 5 -220 0
-269 -3 -284 -15 -166 -138 -383 -259 -588 -329 -137 -47 -173 -42 -265 35
-62 52 -223 199 -392 357 -207 195 -635 630 -843 856 -32 36 -74 80 -92 99
-92 97 -122 151 -115 207 3 24 75 257 100 325 4 8 7 20 8 25 2 8 110 344 168
525 6 19 12 37 12 40 20 76 52 95 224 136 194 45 290 67 306 69 11 2 52 11 90
20 39 9 81 18 95 20 14 3 36 8 50 11 28 7 54 12 90 19 26 5 61 12 95 19 38 8
360 68 380 71 11 2 54 9 95 15 41 7 82 14 92 15 9 2 38 7 65 11 26 3 57 8 68
10 11 2 40 7 65 10 25 3 52 7 60 9 40 7 99 16 140 20 25 2 56 7 70 10 14 3 66
8 116 10 86 4 94 3 130 -21 22 -15 42 -32 47 -40 4 -7 13 -19 20 -26 7 -7 28
-35 47 -63 18 -27 38 -53 44 -57 6 -4 111 -7 234 -7 l223 1 -34 61 c-19 34
-43 78 -54 97 -42 75 -31 113 34 125 136 23 948 24 1118 1 17 -2 57 -7 90 -11
70 -7 120 -14 155 -20 14 -3 41 -7 60 -10 207 -31 403 -107 512 -197 l57 -48
161 1 162 1 -7 26 c-21 83 -142 228 -247 295 -138 88 -338 161 -553 201 -90
17 -215 36 -224 34 -3 -1 -31 2 -61 6 -266 33 -834 39 -1210 11 -25 -2 -91 -6
-148 -9 -56 -3 -106 -7 -110 -7 -18 -3 -33 2 -29 9 5 7 17 90 23 152 1 19 3
35 4 35 2 0 5 21 14 90 3 28 8 61 11 75 2 14 7 50 10 80 3 30 8 69 11 86 3 18
7 51 10 75 2 24 5 62 8 84 9 77 17 160 20 205 16 219 19 297 20 440 0 161 -9
359 -19 410 -11 52 -16 86 -20 120 -2 19 -8 50 -14 68 -5 18 -10 33 -10 35 1
7 -15 71 -33 132 -75 260 -255 454 -465 501 -59 13 -199 13 -250 0z m234 -304
c44 -23 110 -84 131 -121 42 -72 51 -91 47 -91 -3 0 1 -12 8 -27 13 -25 30
-88 42 -153 3 -14 9 -47 15 -75 5 -27 12 -75 15 -105 4 -30 9 -75 13 -100 14
-106 5 -672 -12 -768 -2 -9 -7 -53 -10 -97 -4 -44 -10 -93 -12 -110 -3 -16 -7
-46 -9 -65 -2 -19 -6 -55 -9 -80 -3 -25 -9 -67 -12 -94 -3 -27 -8 -58 -10 -70
-2 -12 -7 -48 -10 -81 -4 -33 -8 -62 -10 -64 -2 -2 -14 4 -26 12 -13 9 -42 30
-66 47 -23 16 -47 30 -52 30 -6 0 -10 4 -10 8 0 5 -10 14 -22 20 -13 6 -45 25
-73 42 -142 87 -484 234 -590 253 -11 2 -38 9 -60 15 -22 6 -53 14 -70 16 -16
3 -41 8 -55 11 -40 8 -94 16 -215 31 -33 4 -132 8 -220 9 -88 2 -161 4 -163 4
-1 1 20 45 49 99 28 53 74 140 102 192 104 198 130 245 142 260 7 8 15 23 19
34 20 57 281 456 341 522 5 6 23 27 38 47 103 131 260 287 377 374 131 97 276
126 377 75z m-3709 -806 c53 -11 243 -77 337 -116 95 -40 334 -157 345 -169 3
-3 25 -17 50 -30 25 -13 64 -37 88 -53 24 -15 45 -28 48 -28 3 0 11 -6 19 -12
7 -7 36 -26 64 -43 28 -16 51 -33 51 -37 0 -5 5 -8 10 -8 10 0 59 -31 86 -55
6 -5 22 -17 34 -25 24 -16 168 -119 185 -132 6 -5 42 -32 80 -61 39 -28 72
-55 73 -59 2 -5 8 -8 14 -8 5 0 15 -6 23 -12 22 -22 53 -46 79 -63 31 -21 33
-35 6 -35 -11 0 -20 -4 -20 -10 0 -5 -4 -10 -9 -10 -11 0 -139 -61 -196 -93
-115 -65 -191 -112 -203 -124 -8 -7 -23 -18 -35 -25 -29 -15 -141 -100 -145
-110 -2 -4 -7 -8 -12 -8 -22 0 -210 -186 -305 -302 -97 -118 -185 -238 -185
-254 0 -3 -16 -28 -35 -57 -19 -28 -35 -55 -35 -59 0 -4 -9 -22 -19 -39 l-19
-31 -53 78 c-29 44 -56 81 -61 82 -4 2 -8 8 -8 14 0 6 -20 39 -45 75 -25 35
-45 68 -45 73 0 4 -3 10 -8 12 -6 3 -57 78 -87 129 -5 10 -47 80 -92 157 -46
76 -83 144 -83 150 0 5 -4 12 -8 14 -11 4 -150 288 -200 408 -91 218 -130 365
-135 509 -8 211 51 320 198 364 48 14 193 16 253 3z m2592 -1200 c80 -6 170
-18 220 -31 6 -1 66 -13 98 -19 48 -10 231 -76 307 -112 44 -20 83 -36 88 -36
4 1 7 -3 7 -8 0 -6 5 -10 10 -10 6 0 40 -18 76 -40 36 -22 70 -40 75 -40 5 0
9 -4 9 -8 0 -5 11 -14 25 -20 14 -6 25 -16 25 -21 0 -13 -48 -29 -105 -36 -79
-8 -128 -14 -150 -19 -11 -2 -45 -7 -75 -11 -30 -4 -64 -9 -75 -11 -24 -5 -57
-11 -110 -19 -22 -3 -62 -11 -90 -16 -27 -5 -57 -10 -65 -11 -13 0 -163 -28
-237 -44 -13 -2 -35 -6 -50 -9 -16 -2 -58 -10 -94 -19 -36 -8 -79 -17 -95 -19
-16 -3 -51 -10 -79 -17 -27 -6 -61 -14 -75 -16 -70 -13 -421 -93 -429 -98 -7
-5 -8 22 -1 32 2 1 3 5 4 10 1 4 12 29 24 56 12 27 22 51 22 53 0 3 6 19 14
36 33 72 76 182 76 193 0 6 7 17 15 24 9 7 14 15 11 17 -2 2 18 54 43 116 60
142 57 140 281 153 58 3 106 7 107 8 3 2 111 -3 193 -8z m-910 -161 c0 -5 -96
-256 -115 -300 -7 -16 -32 -79 -55 -140 -24 -60 -47 -115 -51 -121 -5 -6 -7
-13 -4 -16 7 -6 -39 -49 -56 -52 -8 -2 -21 -6 -29 -9 -14 -6 -297 -84 -331
-92 -9 -2 -53 -13 -96 -25 -44 -12 -86 -23 -94 -24 -8 -2 -22 -6 -32 -11 -31
-13 -30 2 2 50 17 25 31 48 31 51 0 5 75 108 119 164 65 82 151 170 228 234
99 83 102 86 112 86 5 0 11 4 13 8 4 11 94 72 106 72 6 0 12 4 14 9 2 5 50 34
108 64 97 51 130 65 130 52z m-385 -1025 c-13 -38 -21 -70 -18 -70 3 0 1 -6
-5 -12 -5 -7 -16 -33 -23 -58 -7 -25 -14 -49 -15 -55 -42 -148 -132 -415 -139
-414 -5 0 -63 66 -128 147 -105 132 -150 187 -189 231 -58 66 -72 107 -45 130
12 9 473 147 519 154 10 2 21 6 24 10 4 4 15 7 25 7 16 0 16 -5 -6 -70z
m-1132 -382 c-9 -98 -9 -418 0 -493 13 -101 32 -211 47 -260 5 -16 11 -41 14
-55 5 -31 84 -268 93 -284 4 -6 8 -16 9 -22 4 -24 158 -326 200 -391 16 -25 8
-34 -33 -33 -15 0 -68 -1 -118 -4 -398 -20 -703 -24 -905 -12 -121 8 -165 12
-165 15 0 1 -27 4 -60 6 -74 5 -207 30 -375 70 -59 14 -246 82 -295 108 -76
40 -149 115 -168 172 -19 53 -15 135 8 190 61 143 270 349 495 486 30 18 57
37 58 41 2 4 7 8 12 8 5 0 56 27 114 60 58 33 108 60 110 60 2 0 32 16 65 34
34 19 61 32 61 28 0 -4 4 -2 8 3 9 13 169 91 342 166 25 11 54 24 65 29 94 41
375 140 375 132 0 -3 5 -1 12 6 7 7 18 12 25 12 11 0 12 -16 6 -72z m467 -134
c30 -37 59 -72 65 -78 6 -6 37 -42 68 -81 32 -38 80 -94 105 -124 26 -29 51
-62 56 -72 5 -11 13 -19 17 -19 4 0 17 -16 29 -35 16 -26 21 -47 18 -82 -2
-27 -6 -53 -10 -58 -3 -6 -9 -28 -13 -50 -4 -22 -11 -47 -15 -55 -5 -8 -11
-32 -14 -54 -4 -21 -9 -42 -12 -47 -6 -11 -17 -57 -18 -81 0 -10 -3 -18 -6
-18 -3 0 -6 -9 -7 -21 -1 -11 -9 -41 -17 -67 -8 -26 -17 -60 -20 -77 -16 -100
-18 -99 -77 20 -51 102 -104 222 -104 235 0 3 -3 10 -6 15 -5 8 -46 139 -65
207 -6 21 -14 57 -19 83 -1 11 -6 37 -10 57 -22 126 -25 370 -7 461 3 12 7 9
62 -59z m874 -998 c184 -194 503 -513 697 -697 264 -250 274 -259 282 -259 4
0 7 -4 7 -9 0 -13 -243 -3 -350 14 -19 3 -47 7 -62 10 -51 8 -229 55 -266 71
-20 8 -44 17 -52 19 -57 12 -354 161 -458 230 -191 125 -222 237 -152 550 25
115 80 327 87 339 4 5 33 -20 66 -55 32 -35 123 -131 201 -213z m-485 -890
c60 -52 268 -179 381 -233 111 -53 247 -111 280 -119 3 0 12 -3 20 -7 37 -15
204 -58 278 -72 13 -2 31 -6 40 -9 9 -3 40 -7 67 -11 28 -3 61 -8 75 -10 42
-8 188 -16 315 -17 66 0 123 -2 127 -5 4 -2 -15 -45 -42 -96 -27 -51 -64 -121
-82 -157 -18 -36 -36 -67 -39 -70 -3 -3 -19 -32 -36 -65 -17 -33 -39 -76 -50
-95 -11 -19 -35 -62 -53 -95 -18 -33 -44 -77 -57 -97 -12 -21 -23 -40 -23 -43
0 -3 -4 -11 -10 -18 -5 -7 -54 -79 -109 -162 -54 -82 -109 -160 -120 -172 -12
-12 -21 -25 -21 -28 0 -9 -95 -119 -167 -195 -35 -35 -63 -68 -63 -72 0 -5 -4
-8 -9 -8 -5 0 -32 -21 -60 -47 -95 -90 -208 -173 -236 -173 -8 0 -15 -4 -15
-9 0 -5 -12 -12 -27 -15 -16 -4 -39 -9 -53 -12 -83 -19 -176 14 -246 88 -104
109 -167 302 -191 593 -14 163 -7 679 11 806 3 19 8 61 11 94 2 33 7 76 10 95
3 19 7 59 11 88 3 29 7 61 8 70 2 9 7 37 11 62 3 25 9 59 11 75 3 17 7 46 9
65 4 46 16 90 23 90 3 0 13 -6 21 -14z"/>
<path d="M5914 5680 c-9 -25 -22 -58 -29 -75 -7 -16 -23 -59 -35 -95 -12 -36
-26 -74 -30 -85 -15 -38 -42 -110 -57 -155 -9 -25 -20 -56 -26 -70 -5 -14 -11
-29 -13 -35 -1 -5 -14 -41 -29 -80 -15 -38 -30 -81 -34 -95 -13 -39 -99 -269
-122 -325 -12 -27 -22 -57 -23 -65 -1 -8 -5 -22 -9 -30 -4 -8 -23 -60 -43
-115 -50 -139 -75 -208 -139 -380 -31 -82 -57 -157 -59 -165 -3 -8 -19 -53
-36 -100 -31 -83 -36 -96 -59 -153 -22 -54 -36 -52 329 -51 193 0 344 5 349
10 5 5 30 74 56 154 26 80 51 148 56 151 5 3 165 5 355 5 l346 -1 13 -35 c7
-19 30 -89 51 -155 21 -66 41 -122 45 -125 8 -6 688 -5 693 1 2 2 -15 51 -36
109 -22 58 -48 130 -59 160 -12 30 -25 63 -30 72 -5 10 -9 25 -9 33 0 8 -4 23
-10 33 -15 28 -150 401 -150 416 0 8 -3 16 -8 18 -4 2 -14 26 -23 53 -15 45
-39 114 -59 170 -4 11 -12 31 -18 45 -5 14 -15 41 -22 60 -7 19 -16 44 -20 55
-5 11 -20 52 -33 90 -14 39 -62 171 -107 295 -130 356 -162 443 -172 475 l-10
31 -384 -1 -384 0 -16 -45z m422 -750 c3 -8 5 -15 4 -15 -1 0 8 -25 20 -55 12
-30 22 -57 22 -60 0 -3 2 -9 4 -15 2 -5 22 -68 44 -140 23 -71 48 -148 55
-170 7 -22 9 -42 5 -45 -11 -7 -358 -5 -365 2 -3 2 4 31 16 64 11 32 22 66 24
74 2 8 4 16 5 18 2 1 3 5 4 10 2 4 11 34 21 67 11 33 20 62 20 65 1 3 4 12 8
20 12 33 51 156 54 173 2 10 11 32 20 50 l16 32 9 -30 c5 -16 12 -37 14 -45z"/>
<path d="M7619 5690 c0 -46 0 -1982 0 -2040 l1 -45 327 0 c248 0 329 3 333 12
3 7 5 213 5 458 -1 245 0 445 1 445 1 0 17 -24 35 -52 19 -29 37 -57 42 -63
24 -31 127 -188 127 -195 0 -5 3 -10 8 -12 10 -4 72 -97 72 -107 0 -5 3 -11 8
-13 4 -1 77 -106 161 -233 85 -126 155 -232 157 -234 7 -8 784 -6 784 2 0 4
-38 62 -85 128 -47 65 -85 124 -85 129 0 6 -3 10 -7 10 -5 0 -19 17 -33 38
-14 20 -29 42 -33 47 -24 31 -217 307 -217 311 0 3 -6 12 -12 19 -23 25 -33
39 -68 90 -19 28 -37 52 -42 53 -4 2 -8 8 -8 14 0 6 -13 27 -30 48 -16 21 -30
42 -30 48 0 6 -4 12 -8 14 -5 2 -23 26 -42 53 -18 28 -37 52 -40 55 -4 3 -11
14 -17 24 -9 16 -5 27 19 60 59 81 133 184 148 206 8 12 26 37 40 55 14 18 31
41 38 51 7 11 42 60 78 109 36 50 73 101 82 115 9 14 19 27 22 30 3 3 21 28
40 55 19 28 38 55 43 60 4 6 35 48 68 95 33 47 70 98 82 114 12 15 30 40 39
55 l17 26 -373 0 c-335 0 -374 -2 -389 -17 -9 -9 -17 -20 -17 -23 0 -4 -24
-41 -54 -83 -29 -43 -79 -115 -110 -162 -31 -47 -60 -90 -66 -97 -5 -6 -27
-38 -47 -70 -21 -32 -44 -65 -51 -73 -11 -13 -84 -120 -205 -302 -18 -26 -35
-48 -38 -48 -3 0 -5 194 -5 431 1 277 -3 433 -9 437 -5 4 -155 7 -332 7 l-323
0 -1 -35z"/>
</g>
</svg>
