<?xml version="1.0" standalone="no"?>
<!DOCTYPE svg PUBLIC "-//W3C//DTD SVG 20010904//EN"
 "http://www.w3.org/TR/2001/REC-SVG-20010904/DTD/svg10.dtd">
<svg version="1.0" xmlns="http://www.w3.org/2000/svg"
 width="700.000000pt" height="700.000000pt" viewBox="0 0 700.000000 700.000000"
 preserveAspectRatio="xMidYMid meet">
<metadata>
Created by potrace 1.11, written by Peter Selinger 2001-2013
</metadata>
<g transform="translate(0.000000,700.000000) scale(0.100000,-0.100000)"
fill="#000000" stroke="none">
<path d="M858 6975 c-2 -1 -25 -5 -53 -8 -160 -17 -329 -95 -434 -199 -203
-203 -267 -525 -186 -943 43 -224 179 -551 337 -814 l69 -114 -49 -111 c-85
-190 -144 -361 -192 -546 -22 -85 -24 -96 -50 -240 -19 -105 -23 -134 -39
-305 -8 -92 -6 -486 3 -540 3 -16 7 -54 11 -84 6 -60 22 -174 30 -211 3 -14 7
-36 10 -50 3 -14 10 -47 15 -75 6 -27 17 -72 25 -100 8 -27 26 -90 41 -140 36
-124 125 -348 191 -480 56 -110 193 -346 220 -376 11 -13 12 -28 5 -66 -11
-62 -7 -180 9 -247 50 -215 207 -399 409 -478 60 -24 82 -30 150 -43 40 -8
162 -8 202 0 32 6 44 2 110 -42 231 -156 518 -294 802 -388 58 -19 298 -82
341 -90 17 -3 41 -7 55 -9 89 -17 261 -38 350 -45 106 -8 441 -6 515 3 22 2
69 7 105 11 36 3 83 10 105 15 22 4 60 11 85 14 105 14 318 70 480 127 63 22
120 41 125 43 6 2 27 10 47 20 21 9 40 16 43 16 3 0 47 -24 98 -53 117 -68
333 -177 417 -212 36 -14 79 -32 95 -39 96 -43 348 -116 450 -131 22 -3 54 -8
70 -11 100 -18 305 -9 433 20 103 23 222 88 308 168 224 210 290 570 186 1008
-55 229 -176 512 -327 764 l-65 110 44 105 c119 284 206 626 232 917 3 38 7
87 10 109 9 96 3 417 -10 535 -54 490 -203 938 -445 1339 l-59 96 18 50 c17
48 29 88 37 130 12 62 11 266 -2 325 -39 185 -114 325 -242 455 -257 260 -655
332 -991 179 l-53 -24 -77 36 c-340 161 -717 267 -1061 300 -31 3 -74 7 -96 9
-46 5 -413 5 -465 1 -83 -8 -177 -17 -200 -21 -23 -3 -109 -17 -120 -20 -3 0
-27 -4 -53 -9 -67 -10 -76 -12 -127 -26 -25 -7 -54 -14 -65 -16 -23 -4 -226
-65 -300 -90 l-51 -16 -119 71 c-322 193 -687 348 -940 399 -27 6 -76 15 -107
22 -50 10 -302 22 -310 15z m52 -641 c83 -19 224 -67 475 -161 110 -42 208
-78 217 -82 13 -5 0 -19 -61 -64 -43 -31 -86 -65 -97 -75 -11 -9 -46 -39 -79
-67 -64 -54 -257 -244 -316 -313 l-36 -42 -16 43 c-93 244 -192 584 -203 696
-9 87 0 93 116 65z m2790 -209 c281 -25 547 -88 801 -193 l66 -27 -23 -61
c-70 -186 -66 -428 9 -620 62 -156 182 -307 320 -401 259 -177 566 -205 859
-78 l78 33 25 -42 c133 -228 266 -627 301 -906 3 -30 8 -63 10 -73 7 -37 17
-226 17 -307 0 -94 -12 -311 -18 -319 -1 -4 -6 -35 -10 -71 -4 -36 -8 -67 -10
-70 -2 -3 -6 -24 -9 -46 -5 -32 -36 -163 -60 -254 -34 -127 -142 -386 -221
-530 -89 -162 -240 -375 -360 -509 -44 -49 -202 -202 -260 -252 -236 -202
-546 -380 -845 -485 -91 -31 -247 -77 -300 -88 -14 -2 -50 -10 -80 -16 -30 -6
-73 -13 -95 -16 -22 -3 -51 -7 -65 -10 -121 -20 -443 -25 -614 -11 -342 29
-728 151 -1049 330 -70 39 -87 52 -81 66 4 9 21 54 37 101 26 74 30 99 30 200
1 123 -12 186 -59 289 -84 183 -263 329 -463 375 -101 24 -268 15 -361 -19
-41 -14 -82 -29 -90 -31 -17 -6 -24 4 -92 135 -88 168 -186 428 -223 591 -55
244 -70 383 -70 640 1 269 15 398 71 627 141 581 451 1071 922 1461 190 157
471 320 702 408 52 20 104 40 115 45 24 10 217 65 260 73 17 4 41 9 55 12 65
15 115 24 158 29 26 4 58 8 72 11 14 2 75 7 135 10 61 4 111 7 112 8 5 4 234
-3 303 -9z m2373 -4897 c81 -246 137 -457 137 -520 0 -53 -13 -63 -71 -53 -40
7 -199 52 -249 71 -193 72 -390 144 -397 144 -4 0 -16 7 -26 14 -16 12 -11 19
55 72 140 112 391 363 454 453 9 12 18 21 22 21 4 0 38 -91 75 -202z"/>
<path d="M3200 5230 c-392 -67 -712 -228 -986 -496 -358 -352 -549 -820 -539
-1319 3 -152 8 -196 39 -350 44 -217 136 -429 277 -638 260 -383 700 -672
1149 -752 129 -23 177 -27 300 -29 415 -7 791 115 1125 365 379 284 638 728
702 1204 10 74 10 392 1 460 -47 323 -159 600 -346 851 -99 134 -265 297 -397
392 -204 146 -434 244 -710 301 -104 22 -125 23 -315 26 -152 2 -218 -1 -300
-15z"/>
</g>
</svg>
