<?xml version="1.0" standalone="no"?>
<!DOCTYPE svg PUBLIC "-//W3C//DTD SVG 20010904//EN"
 "http://www.w3.org/TR/2001/REC-SVG-20010904/DTD/svg10.dtd">
<svg version="1.0" xmlns="http://www.w3.org/2000/svg"
 width="1008.000000pt" height="1008.000000pt" viewBox="0 0 1008.000000 1008.000000"
 preserveAspectRatio="xMidYMid meet">
<metadata>
Created by potrace 1.11, written by Peter Selinger 2001-2013
</metadata>
<g transform="translate(0.000000,1008.000000) scale(0.100000,-0.100000)"
fill="#000000" stroke="none">
<path d="M6347 9964 c-1 -1 -29 -4 -62 -7 -69 -7 -192 -45 -268 -83 -47 -24
-155 -91 -167 -104 -3 -3 -27 -23 -54 -45 -129 -103 -288 -266 -406 -415 -28
-36 -56 -72 -63 -80 -60 -76 -228 -324 -257 -380 -7 -14 -16 -27 -19 -30 -6
-4 -104 -172 -161 -275 -12 -22 -31 -55 -42 -72 -11 -18 -16 -33 -11 -33 4 0
3 -4 -3 -8 -10 -7 -52 -80 -113 -197 -14 -27 -30 -53 -36 -57 -5 -4 -6 -8 -1
-8 5 0 4 -6 -1 -12 -6 -7 -37 -62 -69 -123 -32 -60 -77 -146 -101 -190 -24
-44 -51 -97 -61 -117 -19 -42 -29 -46 -58 -20 -20 17 -47 38 -169 132 -38 29
-72 56 -75 59 -13 15 -332 251 -340 251 -4 0 -10 3 -12 8 -4 9 -61 51 -203
147 -55 38 -103 74 -107 79 -4 6 -8 7 -8 3 0 -7 -63 35 -80 53 -3 3 -16 11
-30 18 -29 14 -63 34 -70 43 -5 5 -100 64 -135 83 -11 6 -51 30 -90 52 -107
63 -169 98 -175 100 -3 0 -53 24 -112 52 -91 44 -217 96 -253 105 -5 2 -35 11
-65 20 -107 32 -152 43 -220 52 -25 3 -56 10 -70 14 -27 8 -242 6 -275 -2 -11
-3 -42 -10 -70 -17 -187 -42 -355 -180 -436 -357 -26 -57 -39 -98 -41 -130 -1
-7 -4 -13 -8 -13 -3 0 -7 -10 -8 -22 -1 -13 -4 -45 -7 -73 -5 -57 -5 -195 0
-240 2 -16 7 -50 11 -75 3 -25 7 -54 9 -65 1 -11 4 -27 7 -35 3 -8 15 -58 28
-110 31 -131 65 -230 132 -395 51 -124 169 -367 183 -377 5 -4 6 -8 2 -8 -5 0
1 -13 13 -30 12 -17 18 -30 14 -30 -3 0 -2 -6 4 -12 5 -7 22 -34 36 -60 14
-27 38 -69 52 -95 23 -43 104 -182 145 -251 9 -15 26 -44 37 -64 33 -58 76
-123 85 -126 4 -2 7 -8 7 -14 0 -11 50 -89 231 -360 l119 -178 -30 -15 c-17
-9 -30 -13 -30 -9 0 3 -11 -1 -25 -10 -13 -9 -32 -18 -42 -19 -10 -2 -30 -9
-44 -14 -14 -6 -44 -17 -67 -24 -23 -7 -42 -15 -42 -19 0 -4 -6 -7 -12 -7 -13
-1 -237 -88 -313 -123 -22 -9 -65 -28 -95 -40 -100 -40 -212 -93 -420 -197
-194 -98 -229 -117 -332 -178 -24 -14 -51 -28 -60 -32 -10 -3 -18 -9 -18 -14
0 -5 -6 -9 -14 -9 -8 0 -22 -8 -32 -17 -10 -10 -20 -17 -23 -17 -8 2 -230
-145 -255 -168 -11 -10 -23 -18 -26 -18 -4 0 -18 -10 -32 -22 -13 -13 -46 -41
-73 -63 -78 -64 -204 -193 -275 -281 -40 -50 -140 -227 -140 -248 0 -3 -5 -17
-12 -33 -6 -15 -12 -32 -14 -38 -29 -118 -26 -265 9 -380 8 -25 42 -92 55
-108 8 -9 11 -17 6 -17 -5 0 -4 -4 1 -8 6 -4 30 -32 55 -62 25 -30 60 -68 79
-85 19 -16 39 -34 46 -40 42 -37 195 -121 297 -162 100 -41 290 -97 368 -109
19 -3 44 -8 55 -11 11 -4 27 -7 35 -9 67 -8 119 -15 177 -24 222 -31 467 -44
823 -44 287 0 532 9 779 30 138 11 170 9 195 -9 21 -15 27 -70 14 -136 -5 -25
-11 -59 -14 -76 -7 -39 -11 -60 -19 -119 -3 -27 -10 -70 -14 -95 -5 -25 -9
-53 -9 -61 0 -8 -3 -31 -6 -50 -4 -19 -9 -57 -12 -85 -3 -27 -7 -66 -9 -85 -3
-19 -7 -62 -10 -95 -3 -33 -7 -82 -10 -110 -15 -152 -36 -488 -34 -540 0 -11
0 -26 0 -32 -3 -81 -3 -104 2 -110 4 -3 2 -12 -4 -20 -6 -7 -8 -13 -3 -13 5 0
10 -44 10 -98 2 -110 10 -250 19 -303 3 -20 7 -51 9 -70 6 -61 18 -134 24
-143 4 -8 7 -31 15 -108 1 -10 4 -18 7 -18 4 0 7 -6 7 -12 4 -94 98 -320 168
-406 5 -7 28 -34 50 -61 22 -27 43 -50 47 -50 4 -1 19 -12 34 -26 32 -30 124
-84 174 -103 152 -58 353 -58 485 -2 25 11 45 17 45 15 0 -7 152 74 171 91 8
8 21 14 27 14 7 0 12 4 12 9 0 5 13 17 29 28 124 79 350 318 519 548 44 61 88
118 96 127 9 10 16 21 16 24 0 3 29 47 63 97 35 51 86 128 112 172 27 44 52
82 55 85 3 3 12 18 20 34 29 57 35 66 43 66 4 0 6 4 3 9 -3 5 1 14 9 21 8 7
15 16 15 21 0 4 15 34 34 66 83 142 175 322 332 649 45 93 69 123 101 128 22
4 93 -30 93 -44 0 -6 6 -10 13 -10 6 0 26 -13 42 -28 55 -51 366 -295 500
-392 39 -28 78 -57 88 -65 9 -8 22 -15 27 -15 6 0 10 -4 10 -10 0 -5 6 -10 13
-10 8 0 22 -9 32 -20 10 -11 23 -20 30 -20 7 0 20 -9 30 -20 10 -11 24 -20 31
-20 7 0 14 -4 16 -8 3 -7 208 -141 257 -167 10 -6 27 -17 36 -25 10 -8 19 -13
19 -11 1 3 33 -14 71 -36 39 -22 94 -53 123 -68 29 -15 55 -31 58 -36 3 -5 14
-9 24 -9 10 0 20 -4 22 -8 8 -19 377 -173 447 -187 9 -2 36 -9 61 -16 25 -6
52 -13 60 -15 8 -1 26 -5 40 -8 116 -28 344 -27 450 3 41 12 80 22 86 24 7 2
19 9 28 16 9 7 16 10 16 7 0 -4 13 2 29 13 16 12 33 21 38 21 18 0 141 121
180 178 36 52 87 169 98 223 13 63 17 102 19 156 0 35 5 63 9 63 5 0 5 5 2 10
-3 6 -8 34 -10 63 -5 83 -20 202 -25 202 -1 0 -3 11 -5 25 -2 14 -11 54 -20
90 -9 36 -18 72 -20 80 -5 25 -77 233 -95 275 -10 22 -30 69 -45 105 -49 117
-108 242 -184 390 -80 157 -87 170 -132 245 -17 28 -32 57 -35 65 -4 13 -35
15 -200 14 -107 -1 -196 -3 -198 -5 -3 -2 29 -59 70 -127 41 -68 74 -125 74
-128 0 -3 8 -18 18 -32 36 -51 184 -332 176 -332 -3 0 4 -13 16 -30 12 -16 19
-30 16 -30 -3 0 8 -27 25 -59 16 -33 29 -63 29 -66 0 -3 9 -25 19 -48 26 -58
122 -337 115 -337 -2 0 0 -8 5 -17 5 -10 11 -31 14 -48 2 -16 10 -49 16 -73 7
-23 9 -47 6 -52 -3 -6 -2 -10 2 -10 17 0 24 -225 10 -279 -5 -18 -10 -42 -12
-52 -18 -94 -128 -195 -235 -215 -43 -9 -206 -9 -240 0 -14 3 -38 8 -55 10
-16 3 -37 7 -45 10 -15 5 -48 13 -102 23 -16 3 -28 9 -28 14 0 5 -3 8 -7 7 -8
-2 -72 17 -108 32 -71 29 -283 135 -297 148 -10 8 -18 12 -18 8 0 -4 -13 2
-29 13 -16 12 -31 21 -34 21 -26 0 -533 327 -697 450 -14 10 -54 40 -90 67
-36 26 -72 54 -80 61 -8 7 -49 38 -90 69 -41 31 -77 59 -80 62 -3 3 -27 24
-55 46 -75 60 -101 85 -87 85 6 0 35 11 64 25 28 14 58 25 65 25 7 0 13 3 13
8 0 4 27 18 60 32 33 14 60 28 60 33 0 4 5 7 11 7 29 0 362 212 435 278 11 9
49 42 84 73 79 69 136 125 213 210 32 35 69 76 83 91 14 16 22 28 17 29 -4 1
-149 2 -322 3 -205 1 -318 -3 -325 -9 -6 -6 -29 -24 -51 -40 -22 -17 -44 -35
-50 -42 -42 -49 -384 -240 -515 -288 -185 -68 -234 -76 -293 -51 -49 21 -124
86 -421 366 -130 122 -642 637 -762 766 -62 65 -129 138 -150 160 -22 23 -75
81 -119 130 -44 49 -93 103 -110 120 -16 18 -41 45 -54 61 -14 15 -44 50 -68
77 -82 92 -96 153 -61 259 11 34 21 67 23 72 1 6 5 17 8 25 5 15 58 181 152
485 26 83 52 164 57 180 5 17 11 37 13 45 1 8 6 24 10 35 4 11 13 37 21 58 8
20 12 37 9 37 -3 0 1 13 10 30 8 16 15 32 14 35 -3 15 27 72 49 93 32 31 52
38 182 67 18 4 97 23 125 31 11 3 31 7 45 10 14 3 34 8 45 11 11 4 27 8 35 9
8 1 26 5 40 8 14 3 35 8 48 11 12 3 32 7 45 11 12 3 31 7 42 9 11 2 43 9 70
15 28 6 64 14 80 16 17 3 46 9 65 14 42 11 310 67 360 75 19 3 42 8 50 10 8 2
31 7 50 10 19 3 46 8 60 10 55 11 79 16 165 31 50 8 101 17 115 20 14 3 36 7
50 9 40 6 83 13 115 19 17 3 50 8 74 11 23 3 57 8 75 11 17 3 45 7 61 9 17 2
39 6 50 8 11 3 49 8 85 12 36 4 74 9 85 11 66 13 120 18 197 19 80 0 89 -2
129 -30 23 -16 47 -39 53 -50 6 -11 19 -27 29 -36 9 -9 17 -21 17 -28 0 -6 4
-11 9 -11 5 0 16 -15 25 -32 36 -73 16 -69 305 -68 143 1 261 5 261 10 0 4
-16 37 -37 72 -72 125 -85 153 -88 185 -4 36 15 57 60 67 60 15 327 24 680 25
335 0 499 -6 650 -24 22 -2 63 -7 90 -10 72 -8 123 -15 178 -26 26 -5 51 -8
55 -7 4 1 18 -1 32 -5 14 -3 57 -13 95 -22 83 -19 164 -43 185 -54 9 -5 30
-12 48 -16 18 -3 32 -11 32 -16 0 -5 4 -8 8 -6 10 3 106 -45 110 -55 2 -5 9
-8 16 -8 7 0 40 -24 73 -54 l59 -54 192 -2 191 -1 -9 31 c-27 95 -128 227
-244 319 -75 60 -267 161 -331 174 -5 2 -14 5 -20 8 -5 4 -22 9 -37 13 -15 3
-40 11 -55 17 -15 7 -35 13 -43 15 -33 6 -77 15 -111 24 -49 13 -136 30 -184
36 -22 2 -47 7 -55 10 -8 3 -40 7 -70 10 -52 4 -104 10 -160 19 -14 2 -70 7
-125 10 -55 4 -131 9 -170 11 -97 7 -659 7 -780 0 -55 -3 -143 -8 -195 -11
-124 -7 -225 -14 -329 -21 l-83 -5 6 48 c8 62 13 101 20 138 4 27 11 79 21
160 2 17 7 59 10 95 4 36 8 67 10 70 2 3 6 34 10 70 3 36 9 78 11 95 3 16 7
54 10 85 2 30 6 73 9 95 3 22 7 67 10 100 2 33 7 83 10 110 3 28 8 86 11 130
8 108 13 707 6 720 -3 5 -7 28 -9 50 -1 22 -4 56 -7 75 -3 19 -8 62 -12 95 -3
33 -8 63 -10 66 -2 4 -6 24 -10 45 -7 46 -43 202 -51 224 -4 8 -7 17 -7 20
-11 59 -101 250 -140 297 -14 17 -26 34 -26 37 0 14 -117 128 -156 154 -24 15
-44 30 -44 35 0 4 -8 7 -18 7 -10 0 -22 4 -27 9 -17 15 -118 48 -170 56 -51 7
-124 13 -128 9z m144 -373 c63 -28 129 -93 175 -172 53 -89 109 -299 130 -485
3 -27 7 -65 10 -84 14 -107 19 -221 18 -445 -1 -222 -4 -305 -20 -475 -2 -25
-6 -71 -9 -103 -3 -31 -7 -69 -9 -85 -2 -15 -7 -56 -11 -92 -4 -36 -8 -76 -10
-90 -2 -14 -7 -50 -10 -80 -3 -30 -8 -66 -10 -80 -2 -14 -6 -47 -10 -75 -3
-27 -8 -66 -10 -85 -2 -19 -7 -60 -11 -90 -3 -30 -7 -56 -8 -57 -1 -2 -11 5
-22 15 -11 9 -27 22 -36 27 -9 6 -54 35 -100 66 -172 115 -255 165 -270 161
-5 -1 -8 3 -8 9 0 5 -4 7 -10 4 -5 -3 -10 -2 -10 2 0 5 -16 15 -35 22 -19 7
-35 16 -35 20 0 4 -6 8 -12 8 -7 0 -44 15 -82 32 -75 35 -106 47 -241 92 -98
33 -220 66 -275 75 -46 8 -65 12 -65 14 0 1 -14 3 -30 5 -17 2 -46 6 -65 9
-49 9 -137 18 -192 20 -27 0 -48 3 -48 6 0 3 -75 5 -167 5 -93 -1 -171 1 -175
2 -4 2 19 54 52 116 32 61 77 150 100 197 24 47 49 93 58 103 8 9 12 17 9 17
-4 0 6 22 21 48 15 26 38 70 52 97 14 28 27 52 30 55 3 3 16 25 29 50 13 25
58 103 100 173 42 70 81 136 86 146 25 44 168 251 174 251 4 0 15 16 25 35 11
19 23 35 28 35 4 0 8 5 8 11 0 6 6 16 13 23 6 7 30 34 52 61 67 80 97 114 166
183 129 131 245 231 267 232 6 0 12 4 12 8 0 13 129 74 162 77 3 0 9 3 12 6
15 14 163 0 207 -20z m-4321 -955 c48 -7 102 -22 135 -36 24 -10 80 -23 80
-18 1 2 12 -4 25 -13 14 -8 46 -21 73 -29 26 -7 47 -17 47 -21 0 -5 7 -9 16
-9 23 0 309 -135 341 -162 7 -6 13 -8 13 -5 0 6 157 -85 177 -102 7 -6 16 -11
20 -11 4 0 34 -18 66 -40 31 -22 60 -40 63 -40 8 0 69 -44 72 -52 2 -5 8 -8
12 -8 12 0 280 -191 370 -263 8 -7 51 -39 95 -72 77 -57 91 -68 118 -90 7 -5
30 -23 52 -40 22 -16 46 -35 53 -42 7 -7 26 -20 42 -30 17 -9 30 -20 30 -24 0
-3 -62 -37 -137 -75 -213 -105 -429 -241 -554 -347 -14 -12 -43 -35 -64 -52
-35 -27 -260 -249 -304 -300 -45 -52 -102 -126 -146 -190 -26 -38 -52 -71 -57
-73 -4 -2 -8 -8 -8 -13 0 -5 -15 -32 -34 -62 -19 -29 -54 -91 -79 -137 -25
-47 -49 -86 -54 -87 -4 -1 -26 27 -48 62 -22 36 -43 65 -47 65 -5 0 -8 4 -8
10 0 5 -43 74 -95 153 -52 79 -95 149 -95 155 0 6 -4 12 -8 14 -5 2 -43 62
-85 133 -42 72 -80 135 -84 140 -8 10 -14 20 -94 170 -49 91 -116 228 -148
298 -11 26 -30 66 -40 90 -61 136 -153 385 -167 452 -2 11 -7 34 -11 50 -4 17
-8 35 -9 40 -1 6 -3 12 -4 15 -9 24 -19 310 -10 310 3 0 7 10 7 23 2 32 6 46
30 97 53 117 165 177 325 174 46 0 103 -4 128 -8z m3095 -1430 c17 -2 53 -7
80 -11 44 -6 150 -27 210 -41 11 -3 30 -7 42 -10 41 -8 224 -75 291 -105 139
-64 201 -97 300 -162 40 -26 75 -47 78 -47 3 0 12 -7 20 -15 13 -12 12 -16 -8
-27 -26 -14 -39 -17 -88 -23 -19 -3 -48 -7 -65 -10 -16 -3 -46 -7 -65 -9 -19
-3 -35 -5 -35 -6 0 -1 -16 -3 -35 -5 -19 -1 -48 -5 -65 -9 -16 -4 -52 -9 -80
-12 -27 -3 -53 -8 -57 -10 -3 -2 -28 -7 -55 -10 -69 -8 -98 -12 -98 -14 0 -3
-39 -9 -67 -12 -16 -1 -28 -5 -28 -8 0 -3 -19 -6 -42 -7 -23 -2 -46 -7 -51
-12 -5 -5 -15 -7 -21 -5 -7 3 -88 -11 -181 -30 -94 -19 -181 -37 -195 -40 -14
-2 -97 -20 -185 -40 -166 -37 -206 -45 -240 -51 -11 -2 -21 -4 -22 -4 -2 -1
-5 -1 -8 -2 -2 0 -19 -5 -37 -10 -18 -6 -42 -12 -53 -13 -36 -5 -90 -18 -99
-24 -6 -3 -19 -7 -30 -8 -32 -3 -55 -10 -62 -16 -3 -4 -12 -4 -19 -2 -15 6 -8
40 19 92 9 18 14 32 11 32 -4 0 -3 6 2 13 4 6 8 14 9 17 0 3 9 23 18 45 9 22
35 85 58 140 22 55 49 119 59 142 11 24 19 46 19 50 1 5 9 26 20 48 11 22 19
43 20 47 0 4 14 39 31 77 39 87 53 94 224 107 44 4 81 8 83 9 5 4 361 -4 397
-9z m-1122 -206 c-8 -17 -16 -36 -17 -43 -1 -7 -4 -16 -7 -22 -10 -17 -33 -90
-31 -97 1 -5 -2 -8 -8 -8 -5 0 -9 -3 -8 -7 1 -5 -4 -24 -11 -43 -8 -19 -15
-39 -17 -45 -1 -5 -36 -97 -78 -202 -76 -196 -103 -248 -134 -257 -9 -2 -50
-14 -91 -26 -41 -12 -82 -23 -91 -25 -10 -2 -38 -10 -64 -19 -25 -9 -50 -15
-54 -14 -4 0 -14 -2 -22 -5 -17 -7 -194 -58 -219 -62 -9 -2 -16 -4 -16 -5 0
-1 -7 -3 -15 -5 -8 -1 -39 -10 -69 -19 -68 -20 -72 -20 -64 2 13 34 105 177
176 271 66 88 230 262 317 336 81 70 299 217 343 231 9 4 17 11 17 17 0 6 3 7
7 4 3 -4 11 -3 17 2 18 15 130 70 143 71 8 0 7 -9 -4 -30z m-417 -1125 c-5
-13 -101 -322 -143 -460 -8 -27 -17 -57 -21 -65 -3 -8 -6 -17 -7 -20 -1 -4
-15 -51 -30 -100 -1 -3 -5 -18 -10 -35 -4 -16 -10 -34 -14 -40 -3 -5 -7 -17
-8 -26 -1 -8 -6 -26 -11 -38 -8 -21 -11 -19 -53 36 -24 32 -48 63 -54 69 -5 6
-23 28 -40 49 -16 21 -45 56 -62 79 -18 23 -41 51 -50 64 -10 13 -23 29 -28
35 -38 44 -134 166 -146 187 -8 14 -14 31 -13 38 1 6 2 17 3 22 1 10 79 48
111 55 8 2 65 17 125 35 61 18 115 33 120 34 6 1 33 10 60 19 28 9 59 18 70
20 11 1 25 5 30 9 6 3 27 9 48 13 20 4 39 11 42 15 3 5 14 6 25 3 11 -3 20 -1
20 4 0 5 9 9 21 10 14 1 19 -3 15 -12z m-1331 -489 c-27 -250 -22 -520 14
-741 19 -112 20 -115 44 -215 39 -155 64 -236 89 -283 5 -10 6 -22 3 -27 -4
-6 -1 -10 4 -10 6 0 11 -6 11 -14 0 -35 169 -392 236 -498 43 -68 53 -63 -166
-72 -69 -3 -186 -9 -260 -12 -181 -10 -692 -10 -810 -1 -159 13 -323 33 -420
52 -31 6 -133 28 -140 30 -3 1 -24 5 -48 10 -23 4 -45 12 -48 16 -3 5 -10 7
-15 4 -5 -4 -15 -3 -21 2 -14 8 -25 11 -71 20 -15 3 -27 9 -27 14 0 5 -3 8 -7
7 -15 -4 -144 43 -197 72 -91 48 -158 110 -196 180 -21 38 -25 58 -25 130 0
76 4 92 34 155 19 39 39 73 45 77 6 4 7 8 3 8 -5 0 -2 6 5 14 7 7 29 33 48 57
55 69 188 195 275 261 44 32 87 65 95 71 44 35 323 207 336 207 2 0 23 12 47
27 53 34 458 238 557 282 41 18 84 36 95 41 11 5 61 25 110 45 50 20 99 40
110 45 28 12 120 43 145 49 3 0 32 11 65 24 85 33 87 33 80 -27z m535 -192 c0
-4 6 -12 14 -18 8 -6 69 -78 136 -161 67 -82 132 -161 144 -175 13 -14 47 -56
75 -94 49 -64 52 -72 50 -120 -1 -28 -5 -55 -8 -61 -3 -5 -6 -14 -7 -20 -1 -5
-14 -57 -29 -115 -15 -58 -28 -112 -30 -120 -2 -8 -13 -53 -25 -100 -12 -47
-24 -93 -26 -103 -2 -10 -6 -27 -9 -37 -3 -10 -7 -31 -10 -46 -2 -16 -10 -48
-19 -72 -8 -23 -15 -44 -16 -47 -1 -16 -14 0 -36 42 -70 135 -213 493 -198
493 4 0 1 7 -6 15 -7 8 -9 15 -6 15 4 0 2 8 -3 19 -6 10 -13 31 -16 47 -6 34
-13 68 -21 104 -10 43 -12 61 -30 195 -9 68 -6 357 5 430 1 11 71 -59 71 -71z
m864 -1018 c45 -49 99 -108 121 -131 22 -24 90 -96 150 -161 136 -146 724
-736 900 -902 l130 -123 -155 6 c-85 3 -171 8 -190 10 -46 7 -162 28 -222 41
-15 3 -31 6 -35 6 -5 0 -18 4 -31 9 -12 5 -33 11 -45 13 -12 2 -53 16 -92 31
-38 15 -72 27 -75 27 -3 0 -20 6 -39 14 -18 8 -35 14 -38 14 -10 0 -274 133
-279 141 -3 5 -10 7 -15 4 -5 -4 -9 -2 -9 3 0 4 -16 14 -35 22 -19 8 -35 17
-35 22 0 4 -5 8 -11 8 -19 0 -157 101 -198 145 -43 47 -81 114 -81 143 0 10
-3 22 -7 26 -8 8 -13 156 -5 169 2 5 6 29 8 55 2 26 6 58 9 72 4 14 9 39 12
55 8 45 11 60 13 60 1 0 3 15 6 33 2 18 9 42 14 53 6 10 9 19 6 19 -3 0 0 15
5 33 6 17 13 46 16 62 3 17 9 38 14 47 5 9 9 21 8 25 -1 4 0 11 1 16 3 8 4 12
15 52 13 49 16 49 53 9 19 -22 71 -79 116 -128z m-424 -1205 c0 -5 13 -17 29
-28 16 -10 77 -50 135 -90 58 -40 106 -69 106 -65 0 4 4 2 8 -4 4 -6 34 -25
67 -43 33 -18 65 -37 71 -42 6 -5 14 -6 17 -2 4 3 7 1 7 -5 0 -7 3 -11 8 -10
4 0 52 -20 107 -46 109 -52 129 -60 285 -112 98 -32 215 -64 250 -68 9 -1 20
-5 25 -8 6 -3 22 -5 38 -4 15 1 27 -2 27 -7 0 -5 10 -8 23 -7 12 1 24 1 27 0
3 -2 16 -4 30 -5 14 -1 41 -6 61 -9 63 -12 140 -17 276 -19 73 -1 133 -5 133
-9 0 -4 6 -5 13 -3 25 10 108 12 113 3 3 -5 1 -14 -4 -21 -10 -12 -113 -207
-165 -312 -16 -33 -33 -62 -38 -65 -4 -3 -10 -17 -14 -32 -4 -15 -13 -32 -21
-39 -8 -6 -14 -17 -14 -23 0 -6 -29 -62 -65 -125 -36 -63 -65 -121 -65 -128 0
-7 -4 -13 -8 -13 -5 0 -19 -22 -32 -50 -13 -27 -27 -50 -31 -50 -4 0 -12 -12
-18 -27 -14 -39 -44 -86 -58 -96 -7 -4 -13 -12 -13 -18 0 -18 -225 -342 -272
-390 -7 -8 -31 -36 -53 -63 -82 -102 -320 -325 -430 -404 -33 -23 -128 -63
-174 -73 -103 -22 -212 13 -286 93 -37 39 -78 95 -80 108 -1 3 -8 19 -18 37
-21 39 -55 125 -61 155 -3 13 -12 48 -20 78 -8 30 -17 73 -21 95 -3 22 -8 56
-12 75 -3 19 -7 55 -8 80 -2 25 -4 45 -5 45 -12 0 -17 572 -7 735 4 58 9 143
12 190 3 47 7 96 10 110 3 14 7 60 10 102 4 43 8 86 10 96 2 11 6 43 10 73 3
30 8 65 10 79 3 14 7 45 10 70 3 25 8 56 10 70 2 14 6 43 10 65 3 23 8 52 11
65 6 30 11 58 13 83 1 17 21 25 21 8z"/>
<path d="M7769 6155 c0 -22 0 -620 -1 -1330 l0 -1290 399 0 398 0 2 385 c1
212 2 392 3 400 0 15 80 -104 80 -120 0 -4 4 -10 8 -12 5 -1 28 -37 53 -78 24
-41 47 -79 51 -85 24 -30 56 -84 52 -88 -2 -2 5 -12 16 -22 11 -10 20 -21 20
-25 0 -4 38 -69 85 -144 47 -74 85 -140 85 -146 0 -5 4 -10 10 -10 5 0 12 -11
16 -24 3 -14 11 -27 18 -29 17 -7 939 -6 950 0 4 3 4 8 -1 12 -5 3 -31 35 -58
71 -28 36 -52 67 -55 70 -3 3 -25 32 -50 65 -24 33 -50 67 -58 75 -7 8 -33 42
-58 75 -24 33 -53 70 -64 83 -11 13 -34 43 -52 68 -17 24 -35 44 -40 44 -4 0
-8 4 -8 10 0 8 -84 125 -101 140 -6 6 -72 90 -109 140 -14 19 -44 58 -67 87
-24 29 -43 56 -43 61 0 7 101 151 150 212 10 14 69 93 130 175 62 83 117 157
123 165 7 8 23 31 37 50 13 19 27 37 30 40 3 3 23 30 45 60 22 30 43 60 48 65
99 126 183 251 172 255 -8 3 -214 5 -459 4 -368 -1 -447 -3 -458 -15 -12 -13
-117 -168 -143 -211 -33 -55 -170 -254 -179 -260 -6 -4 -7 -8 -2 -8 5 0 1 -10
-10 -22 -11 -13 -51 -69 -88 -126 -38 -56 -71 -104 -75 -106 -3 -2 -5 307 -4
688 l2 691 -400 1 -399 0 -1 -41z"/>
<path d="M5935 5578 c-27 -5 -60 -10 -72 -11 -13 -1 -23 -4 -23 -7 0 -3 -9 -6
-21 -7 -20 -2 -189 -80 -199 -92 -3 -3 -23 -19 -45 -36 -96 -71 -176 -171
-235 -290 -14 -27 -29 -53 -35 -57 -5 -4 -7 -8 -3 -8 4 0 0 -17 -8 -37 -9 -20
-18 -44 -20 -52 -2 -9 -10 -41 -18 -71 -13 -50 -19 -79 -33 -175 -7 -53 -9
-349 -2 -370 3 -11 9 -42 13 -70 3 -27 10 -65 15 -83 5 -18 10 -35 9 -38 0 -9
56 -179 61 -184 4 -3 19 -29 35 -59 139 -266 394 -422 691 -422 49 0 110 3
135 7 71 10 220 62 220 76 0 4 5 8 11 8 16 0 106 73 132 107 12 15 24 30 28
33 3 3 13 19 22 35 19 36 18 41 20 -115 l2 -125 395 0 395 0 3 1013 c1 556 -1
1012 -5 1013 -11 1 -765 1 -779 0 -6 -1 -10 -46 -10 -131 1 -72 -1 -130 -4
-130 -3 0 -14 14 -24 31 -28 47 -122 134 -179 165 -29 15 -55 32 -58 37 -3 5
-10 8 -15 8 -5 -1 -29 5 -54 13 -97 30 -245 41 -345 24z m505 -715 c25 -11 57
-31 71 -44 35 -31 79 -103 79 -128 0 -11 4 -22 9 -25 5 -3 8 -19 7 -36 -1 -16
1 -30 4 -30 5 0 4 -51 -4 -138 -2 -23 -9 -49 -16 -57 -7 -8 -10 -15 -6 -15 12
0 -25 -61 -60 -99 -49 -55 -121 -83 -210 -83 -39 0 -80 5 -90 10 -11 5 -30 15
-44 21 -92 44 -150 152 -155 289 -3 106 25 205 76 268 18 22 88 66 126 79 53
18 159 12 213 -12z"/>
</g>
</svg>
