<svg fill="none" xmlns="http://www.w3.org/2000/svg" viewBox="0 0 15 15">
  <path d="M5.76644 2.14558C6.36937.304335 8.97618.310319 9.57065 2.15431l.26953.83604c.26582.82465 1.03252 1.38434 1.89892 1.38632l.8784.00202c1.9375.00445 2.7373 2.48552 1.1673 3.62072l-.7118.51469c-.7022.50767-.9976 1.40973-.7317 2.2344l.2695.836c.5945 1.844-1.518 3.3714-3.08281 2.229l-.70945-.5179c-.69981-.5109-1.649-.5131-2.35114-.0054l-.71183.5147c-1.57004 1.1352-3.67548-.4019-3.07254-2.2432l.27336-.8348c.26964-.82338-.02161-1.72679-.72141-2.23768l-.70946-.51795C-.0392902 6.82887.77195 4.3515 2.70939 4.35595l.87841.00201c.86645.00199 1.63564-.55416 1.90528-1.37759l.27336-.83479z" fill="#FFFFF4"/>
</svg>