<svg fill="none" xmlns="http://www.w3.org/2000/svg" viewBox="0 0 916 448">
  <g opacity=".1" fill="#FFFFF4">
    <path d="M93.7695 390.411c.3041-1.914 2.8791-2.32 3.7577-.593l.7978 1.568c.3929.772 1.2384 1.203 2.094 1.068l1.738-.274c1.914-.302 3.096 2.021 1.725 3.39l-1.244 1.244c-.613.612-.762 1.549-.369 2.322l.797 1.567c.879 1.727-.965 3.57-2.691 2.689l-1.5671-.799c-.7718-.394-1.7094-.246-2.3224.366l-1.2445 1.243c-1.3708 1.37-3.6928.185-3.3887-1.729l.2761-1.737c.136-.856-.2944-1.702-1.0662-2.095l-1.567-.8c-1.7258-.88-1.3166-3.455.5972-3.757l1.7376-.274c.8558-.135 1.5274-.806 1.6634-1.662l.2761-1.737zM146.855 277.438c1.196-1.341 3.408-.368 3.229 1.42-.08.799.363 1.559 1.099 1.883 1.644.723 1.402 3.128-.353 3.509-.785.171-1.371.828-1.451 1.627-.18 1.788-2.542 2.301-3.447.749-.405-.694-1.211-1.048-1.996-.877-1.755.381-2.973-1.706-1.777-3.047.534-.599.622-1.475.217-2.169-.905-1.551.704-3.355 2.349-2.632.735.323 1.595.136 2.13-.463zM101.906 15.4892c1.196-1.3406 3.409-.3676 3.229 1.4198-.08.7994.363 1.5595 1.099 1.8829 1.644.7231 1.403 3.1281-.353 3.5097-.785.1706-1.371.8274-1.451 1.6267-.18 1.7875-2.541 2.3009-3.447.7493-.405-.6939-1.2104-1.0481-1.9954-.8775-1.7555.3816-2.9736-1.706-1.7778-3.0466.5348-.5995.6228-1.4752.2179-2.1691-.9054-1.5516.7037-3.3553 2.3481-2.6322.7352.3234 1.5952.1365 2.1302-.463zM191.988 162.692c-.085-1.935 2.356-2.849 3.563-1.333l1.82 2.287c.539.678 1.454.932 2.265.628l2.738-1.024c1.814-.679 3.438 1.361 2.369 2.977l-1.613 2.437c-.478.723-.436 1.671.103 2.349l1.82 2.287c1.207 1.516-.232 3.69-2.099 3.173l-2.817-.781c-.834-.231-1.724.102-2.202.824l-1.612 2.438c-1.069 1.616-3.581.92-3.666-1.016l-.128-2.92c-.038-.865-.629-1.608-1.464-1.84l-2.817-.78c-1.867-.517-1.982-3.122-.167-3.801l2.738-1.024c.811-.303 1.335-1.095 1.297-1.961l-.128-2.92zM244.766 354.146c.603-1.842 3.21-1.836 3.805.008l.269.836c.266.825 1.033 1.385 1.899 1.387l.879.002c1.937.004 2.737 2.485 1.167 3.62l-.712.515c-.702.508-.998 1.41-.732 2.234l.27.837c.594 1.844-1.518 3.371-3.083 2.229l-.709-.518c-.7-.511-1.649-.513-2.352-.006l-.711.515c-1.57 1.135-3.676-.402-3.073-2.243l.273-.835c.27-.823-.021-1.727-.721-2.238l-.709-.518c-1.565-1.142-.754-3.619 1.183-3.615l.879.002c.866.002 1.635-.554 1.905-1.378l.273-.834zM9.81923 99.1983c.60297-1.8412 3.20977-1.8352 3.80417.0087l.2696.836c.2658.825 1.0325 1.384 1.8989 1.386l.8784.002c1.9375.005 2.7373 2.486 1.1673 3.621l-.7119.515c-.7021.508-.9975 1.41-.7316 2.234l.2695.836c.5945 1.844-1.518 3.372-3.0828 2.229l-.7095-.518c-.6998-.511-1.649-.513-2.3511-.005l-.71184.515c-1.57003 1.135-3.67547-.402-3.07254-2.244l.27336-.834c.26964-.824-.0216-1.727-.72141-2.238l-.70946-.518c-1.5648-1.142-.75356-3.62 1.18388-3.615l.8784.002c.86645.002 1.63564-.554 1.90528-1.378l.27336-.8347zM296.65 234.58c1.162-1.491 3.552-.685 3.576 1.204l.012.883c.011.849.556 1.599 1.361 1.87l.565.19c1.872.631 1.794 3.304-.111 3.825l-.242.066c-.879.241-1.484 1.044-1.473 1.955l.006.427c.024 1.924-2.417 2.769-3.587 1.242l-.602-.785c-.495-.646-1.331-.927-2.115-.713l-.955.261c-1.856.508-3.288-1.642-2.105-3.159l.263-.337c.56-.718.565-1.724.011-2.447l-.154-.2c-1.201-1.567.355-3.742 2.226-3.112l.565.191c.805.271 1.693.004 2.216-.665l.543-.696zM339.868 93.7595c-.6-1.7924 1.392-3.3396 2.98-2.3155l2.657 1.7127c.713.4601 1.64.4194 2.311-.1015l2.399-1.864c1.559-1.2115 3.744.3299 3.126 2.2055l-.824 2.4999c-.285.8651.051 1.8135.816 2.307l2.273 1.4656c1.618 1.0428.973 3.5448-.946 3.6758l-3.363.231c-.811.056-1.508.597-1.762 1.37l-1.055 3.201c-.603 1.827-3.186 1.833-3.796.008l-.859-2.565c-.288-.864-1.125-1.423-2.033-1.361l-2.626.18c-1.97.136-2.924-2.363-1.364-3.574l2.399-1.8642c.67-.5209.939-1.4085.67-2.2138l-1.003-2.9975zM42.7793 211.025c-.5996-1.792 1.392-3.34 2.9804-2.316l2.6566 1.713c.7137.46 1.6401.42 2.3107-.101l2.3992-1.864c1.5595-1.212 3.7447.33 3.1265 2.205l-.824 2.5c-.2851.865.0503 1.813.8158 2.307l2.2733 1.466c1.6174 1.042.9732 3.544-.9467 3.676l-3.3624.231c-.8112.055-1.5079.597-1.7625 1.369l-1.055 3.201c-.6024 1.828-3.1857 1.833-3.7962.008l-.8581-2.565c-.2889-.863-1.125-1.423-2.0337-1.36l-2.626.18c-1.9702.135-2.9235-2.363-1.3641-3.575l2.3993-1.864c.6706-.521.9391-1.408.6697-2.214l-1.0028-2.997zM397.165 424.598c1.2-1.46 3.569-.595 3.545 1.295l-.023 1.856c-.011.849.516 1.612 1.314 1.903l1.54.563c1.855.677 1.71 3.348-.208 3.82l-1.231.304c-.885.218-1.51 1.006-1.521 1.917l-.018 1.4c-.024 1.924-2.486 2.708-3.617 1.151l-1.181-1.623c-.478-.657-1.307-.96-2.096-.765l-1.948.48c-1.869.461-3.246-1.725-2.025-3.211l.889-1.082c.579-.704.608-1.71.073-2.446l-.747-1.026c-1.161-1.597.449-3.733 2.304-3.055l1.54.562c.798.292 1.692.047 2.231-.609l1.179-1.434zM444.956 305.251c.687-1.761 3.207-1.674 3.772.13l.375 1.199c.254.81.992 1.372 1.84 1.401l.996.035c1.974.067 2.665 2.651.99 3.695l-.545.34c-.773.482-1.123 1.425-.85 2.295l.239.763c.574 1.837-1.522 3.346-3.081 2.218l-1.119-.809c-.658-.476-1.54-.507-2.23-.076l-1.171.73c-1.633 1.018-3.621-.632-2.922-2.424l.291-.746c.332-.848.047-1.814-.69-2.347l-.521-.377c-1.6-1.157-.732-3.687 1.241-3.619l.996.034c.849.03 1.624-.48 1.932-1.271l.457-1.171zM504.821 13.7311c1.745.7248 1.605 3.2427-.211 3.7682l-2.57.7438c-.815.2361-1.393.9615-1.44 1.8094l-.141 2.5137c-.111 1.9716-2.708 2.6074-3.717.9096l-1.085-1.8268c-.465-.783-1.4-1.1529-2.275-.8997l-2.132.617c-1.848.5351-3.312-1.5936-2.151-3.128l1.728-2.2829c.49-.6483.54-1.5292.125-2.2283l-1.463-2.4614c-.982-1.65445.71-3.60646 2.487-2.86848l2.049.85106c.842.3493 1.813.08613 2.362-.64015l1.282-1.69426c1.192-1.57466 3.703-.65297 3.592 1.3187l-.141 2.51373c-.047.8478.446 1.6332 1.23 1.9588l2.471 1.026zM552.756 197.914c1.745.725 1.604 3.243-.211 3.768l-.821.238c-.816.236-1.393.961-1.441 1.809l-.031.565c-.111 1.971-2.708 2.607-3.717.909l-.113-.19c-.465-.783-1.401-1.153-2.276-.9l-.382.111c-1.849.535-3.312-1.594-2.151-3.128l.579-.766c.491-.648.54-1.529.125-2.228l-.49-.825c-.983-1.655.709-3.607 2.486-2.869l.368.153c.841.349 1.812.086 2.362-.64l.134-.177c1.191-1.575 3.702-.653 3.591 1.319l-.031.564c-.048.848.445 1.634 1.23 1.959l.789.328zM604.85 385.021c1.746.725 1.605 3.242-.211 3.768l-3.857 1.116c-.816.237-1.393.962-1.441 1.81l-.221 3.948c-.11 1.972-2.708 2.608-3.716.91l-1.801-3.031c-.465-.783-1.401-1.153-2.276-.9l-3.419.99c-1.849.535-3.312-1.594-2.151-3.128l2.573-3.4c.491-.649.54-1.53.125-2.229l-2.178-3.666c-.982-1.654.71-3.606 2.487-2.868l3.287 1.365c.842.349 1.813.086 2.362-.64l2.128-2.812c1.192-1.574 3.702-.653 3.592 1.319l-.221 3.949c-.048.848.445 1.633 1.229 1.959l3.709 1.54zM654.138 100.469c1.825-.4893 3.248 1.593 2.128 3.116l-2.378 3.236c-.503.684-.519 1.611-.04 2.312l2.231 3.266c1.114 1.631-.558 3.717-2.392 2.986l-3.275-1.306c-.846-.338-1.813-.061-2.353.673l-2.108 2.868c-1.14 1.551-3.597.755-3.611-1.169l-.032-4.264c-.006-.813-.504-1.542-1.259-1.843l-3.96-1.58c-1.788-.713-1.636-3.292.223-3.79l3.439-.92c.88-.236 1.489-1.036 1.482-1.947l-.026-3.5259c-.014-1.9748 2.538-2.7736 3.652-1.143l2.231 3.2659c.479.701 1.348 1.023 2.168.803l3.88-1.038zM702.51 430.981c1.746.725 1.605 3.243-.211 3.768l-.691.2c-.816.236-1.393.962-1.441 1.81l-.023.42c-.111 1.972-2.742 2.551-3.75.854-.465-.784-1.409-1.167-2.284-.913l-.253.073c-1.848.535-3.312-1.594-2.151-3.128l.494-.653c.491-.649.54-1.53.125-2.229l-.418-.704c-.983-1.654.709-3.606 2.486-2.868l.244.101c.841.349 1.821.073 2.371-.653 1.192-1.574 3.742-.705 3.631 1.267l-.023.42c-.048.848.445 1.633 1.23 1.959l.664.276zM753.267 244.842c1.648-.926 3.542.739 2.835 2.492l-1.865 4.623c-.318.788-.103 1.69.534 2.251l3.752 3.297c1.483 1.304.38 3.74-1.578 3.485l-4.502-.584c-.903-.118-1.771.39-2.112 1.235l-1.695 4.2c-.72 1.785-3.298 1.623-3.788-.238l-1.346-5.103c-.207-.786-.87-1.369-1.676-1.473l-5.234-.68c-1.908-.248-2.399-2.784-.722-3.727l3.949-2.219c.794-.446 1.186-1.373.954-2.254l-1.158-4.389c-.503-1.909 1.772-3.316 3.255-2.012l3.751 3.297c.638.561 1.56.658 2.3.242l4.346-2.443zM802.173 36.6231c1.863.323 2.279 2.8102.624 3.7223l-1.229.6769c-.743.4098-1.147 1.2446-1.007 2.082l.191 1.1375c.326 1.9476-2.068 3.1394-3.426 1.7051l-.546-.5772c-.626-.6615-1.62-.8164-2.418-.3769l-.829.4568c-1.685.9287-3.581-.8257-2.786-2.5781l.633-1.3958c.336-.7405.19-1.6106-.368-2.2012l-1.054-1.1132c-1.323-1.3977-.102-3.6742 1.794-3.3454l.933.1618c.897.1556 1.787-.3148 2.163-1.1442l.328-.7237c.816-1.7983 3.468-1.4516 3.794.4961l.191 1.1374c.14.8375.794 1.4951 1.63 1.6402l1.382.2396zM855.624 346.438c1.522 1.12.785 3.532-1.103 3.61l-3.35.137c-.848.035-1.582.602-1.831 1.414l-.948 3.102c-.577 1.888-3.251 1.886-3.826-.003l-.824-2.71c-.265-.871-1.086-1.454-1.996-1.416l-2.894.118c-1.922.079-2.836-2.337-1.343-3.55l2.772-2.251c.631-.513.889-1.357.652-2.135l-1.039-3.416c-.56-1.841 1.549-3.333 3.099-2.193l2.333 1.717c.734.539 1.739.515 2.446-.059l2.199-1.786c1.532-1.245 3.751.249 3.173 2.137l-.948 3.102c-.248.812.044 1.692.728 2.196l2.7 1.986zM906.26 163.07c1.523 1.12.785 3.532-1.103 3.609l-3.349.138c-.849.035-1.583.601-1.831 1.413l-.948 3.102c-.578 1.889-3.252 1.887-3.826-.002l-.825-2.71c-.265-.872-1.085-1.454-1.995-1.417l-2.894.119c-1.923.079-2.837-2.337-1.343-3.55l2.771-2.252c.631-.512.889-1.356.653-2.134l-1.039-3.416c-.56-1.841 1.548-3.334 3.098-2.193l2.333 1.716c.734.54 1.74.516 2.447-.058l2.198-1.786c1.533-1.245 3.751.248 3.174 2.137l-.948 3.102c-.249.812.043 1.692.727 2.195l2.7 1.987z"/>
  </g>
</svg>